<svg width="30" height="30" viewBox="0 0 30 30" fill="none" xmlns="http://www.w3.org/2000/svg">
<path fill-rule="evenodd" clip-rule="evenodd" d="M24.625 7C25.3844 7 26 7.61561 26 8.375V24.875C26 27.1532 24.1532 29 21.875 29H8.125C5.84682 29 4 27.1532 4 24.875V8.375C4 7.61561 4.61561 7 5.375 7H24.625ZM15.9723 11.5277C15.4353 10.9908 14.5647 10.9908 14.0277 11.5277L9.90273 15.6527C9.36576 16.1897 9.36576 17.0603 9.90273 17.5973C10.4397 18.1342 11.3103 18.1342 11.8473 17.5973L13.625 15.8195V23.5C13.625 24.2594 14.2406 24.875 15 24.875C15.7594 24.875 16.375 24.2594 16.375 23.5V15.8195L18.1527 17.5973C18.6897 18.1342 19.5603 18.1342 20.0973 17.5973C20.6342 17.0603 20.6342 16.1897 20.0973 15.6527L15.9723 11.5277Z" fill="#FF6C4E"/>
<path d="M29 2.5C29 1.67157 28.3732 1 27.6 1H2.4C1.6268 1 1 1.67157 1 2.5C1 3.32843 1.6268 4 2.4 4H27.6C28.3732 4 29 3.32843 29 2.5Z" fill="#FF6C4E"/>
</svg>
