<svg width="27" height="27" viewBox="0 0 27 27" fill="none" xmlns="http://www.w3.org/2000/svg">
<path d="M2.82326 14.5523C2.82326 13.8244 3.4133 13.2344 4.14115 13.2344H6.77691C7.50476 13.2344 8.09479 13.8244 8.09479 14.5523V19.8238H10.7306V14.5523C10.7306 13.8244 11.3206 13.2344 12.0484 13.2344H14.6842C15.412 13.2344 16.0021 13.8244 16.0021 14.5523V19.8238H18.6378V14.5523C18.6378 13.8244 19.2279 13.2344 19.9557 13.2344H22.5915C23.3193 13.2344 23.9094 13.8244 23.9094 14.5523V19.8238C25.3651 19.8238 26.5451 21.0039 26.5451 22.4595V23.7774C26.5451 25.2331 25.3651 26.4132 23.9094 26.4132H2.82326C1.36757 26.4132 0.1875 25.2331 0.1875 23.7774V22.4595C0.1875 21.0039 1.36757 19.8238 2.82326 19.8238V14.5523Z" fill="#6D56FD"/>
<path d="M0.1875 7.11275C0.1875 6.03498 0.843676 5.06578 1.84437 4.66551L12.3874 0.448284C13.0158 0.196926 13.7168 0.196926 14.3452 0.448284L24.8883 4.66551C25.889 5.06578 26.5451 6.03498 26.5451 7.11275V7.96402C26.5451 9.41971 25.3651 10.5998 23.9094 10.5998H2.82326C1.36757 10.5998 0.1875 9.41971 0.1875 7.96402V7.11275Z" fill="#6D56FD"/>
</svg>
