<svg width="28" height="28" viewBox="0 0 28 28" fill="none" xmlns="http://www.w3.org/2000/svg">
<path d="M11.0835 22.9173C11.0835 22.6642 11.2887 22.459 11.5418 22.459H16.4585C16.7116 22.459 16.9168 22.6642 16.9168 22.9173C16.9168 24.4361 15.6856 25.6673 14.1668 25.6673H14.0002H13.8335C12.3147 25.6673 11.0835 24.4361 11.0835 22.9173Z" fill="#3936D5"/>
<path fill-rule="evenodd" clip-rule="evenodd" d="M10.4998 5.83203C10.4998 3.89903 12.0668 2.33203 13.9998 2.33203C15.9328 2.33203 17.4998 3.89903 17.4998 5.83203C17.4998 5.95576 17.5714 6.06797 17.6818 6.12383C20.3425 7.47002 22.1665 10.2297 22.1665 13.4154V16.4816V16.4816C22.1665 16.7669 22.1665 16.9095 22.2081 17.0137C22.2497 17.1178 22.4505 17.3292 22.8521 17.7519L22.8521 17.7519C23.1502 18.0657 23.3332 18.49 23.3332 18.957C23.3332 19.9235 22.5497 20.707 21.5832 20.707H6.4165C5.45 20.707 4.6665 19.9235 4.6665 18.957C4.6665 18.49 4.84946 18.0657 5.1476 17.7519C5.54919 17.3292 5.74999 17.1178 5.79158 17.0137C5.83317 16.9095 5.83317 16.7669 5.83317 16.4816V13.4154C5.83317 10.2297 7.65722 7.47002 10.3179 6.12383C10.4283 6.06797 10.4998 5.95576 10.4998 5.83203ZM9.33325 15.7493C9.01109 15.7493 8.74992 16.0105 8.74992 16.3327C8.74992 16.6548 9.01109 16.916 9.33325 16.916H18.6666C18.9888 16.916 19.2499 16.6548 19.2499 16.3327C19.2499 16.0105 18.9888 15.7493 18.6666 15.7493H9.33325Z" fill="#3936D5"/>
</svg>
