<svg width="29" height="29" viewBox="0 0 29 29" fill="none" xmlns="http://www.w3.org/2000/svg">
<path fill-rule="evenodd" clip-rule="evenodd" d="M6.58567 0.535039C3.40031 0.95573 0.95573 3.40031 0.535039 6.58567C0.245824 8.77552 0 11.5148 0 14.5C0 17.4852 0.245824 20.2245 0.535039 22.4143C0.95573 25.5997 3.40031 28.0443 6.58567 28.465C8.77552 28.7542 11.5148 29 14.5 29C17.4852 29 20.2245 28.7542 22.4143 28.465C25.5997 28.0443 28.0443 25.5997 28.465 22.4143C28.7542 20.2245 29 17.4852 29 14.5C29 11.5148 28.7542 8.77552 28.465 6.58567C28.0443 3.40031 25.5997 0.95573 22.4143 0.535039C20.2245 0.245824 17.4852 0 14.5 0C11.5148 0 8.77552 0.245824 6.58567 0.535039ZM20.3 13.05C19.4992 13.05 18.85 12.4008 18.85 11.6V10.15H17.4C16.5992 10.15 15.95 9.50081 15.95 8.7C15.95 7.89919 16.5992 7.25 17.4 7.25H18.85V5.8C18.85 4.99919 19.4992 4.35 20.3 4.35C21.1008 4.35 21.75 4.99919 21.75 5.8V7.25H23.2C24.0008 7.25 24.65 7.89919 24.65 8.7C24.65 9.50081 24.0008 10.15 23.2 10.15H21.75V11.6C21.75 12.4008 21.1008 13.05 20.3 13.05ZM5.8 7.25C4.99919 7.25 4.35 7.89919 4.35 8.7C4.35 9.50081 4.99919 10.15 5.8 10.15H11.6C12.4008 10.15 13.05 9.50081 13.05 8.7C13.05 7.89919 12.4008 7.25 11.6 7.25H5.8ZM17.4 15.95C16.5992 15.95 15.95 16.5992 15.95 17.4C15.95 18.2008 16.5992 18.85 17.4 18.85H23.2C24.0008 18.85 24.65 18.2008 24.65 17.4C24.65 16.5992 24.0008 15.95 23.2 15.95H17.4ZM17.4 21.75C16.5992 21.75 15.95 22.3992 15.95 23.2C15.95 24.0008 16.5992 24.65 17.4 24.65H23.2C24.0008 24.65 24.65 24.0008 24.65 23.2C24.65 22.3992 24.0008 21.75 23.2 21.75H17.4ZM7.5503 17.0997C6.98405 16.5334 6.06596 16.5334 5.4997 17.0997C4.93344 17.666 4.93344 18.584 5.4997 19.1503L6.64939 20.3L5.49969 21.4497C4.93343 22.016 4.93343 22.934 5.49969 23.5003C6.06596 24.0666 6.98405 24.0666 7.5503 23.5003L8.7 22.3506L9.8497 23.5003C10.416 24.0666 11.334 24.0666 11.9003 23.5003C12.4666 22.934 12.4666 22.016 11.9003 21.4497L10.7506 20.3L11.9003 19.1503C12.4666 18.584 12.4666 17.666 11.9003 17.0997C11.334 16.5334 10.416 16.5334 9.8497 17.0997L8.7 18.2494L7.5503 17.0997Z" fill="#FF62A1"/>
</svg>
