<svg width="32" height="32" viewBox="0 0 32 32" fill="none" xmlns="http://www.w3.org/2000/svg">
<path d="M27.9752 10.7996C28.649 10.1105 29.1561 9.02987 29.2952 7.86301C29.3971 7.00798 29.448 6.58046 29.1779 6.34883C28.9079 6.1172 28.3163 6.28192 27.1333 6.61137C26.5661 6.76933 25.9916 6.88467 25.5549 6.94536C25.3308 6.9765 25.2187 6.99207 25.0829 6.95308C24.9471 6.91409 24.8287 6.81486 24.5918 6.61641C20.9976 3.60561 15.2364 6.17438 15.9094 11.4239C15.9625 11.8374 15.989 12.0442 15.8781 12.1593C15.7673 12.2744 15.5839 12.2578 15.2173 12.2248C13.1908 12.042 11.1812 11.2225 9.30893 10.01C7.3844 8.76358 6.42214 8.14039 5.71928 8.53725C5.01642 8.93412 5.04593 9.85736 5.10494 11.7038C5.22425 15.4366 6.77688 18.7381 9.98817 21.3806C10.3677 21.6929 10.5574 21.849 10.5189 22.0444C10.4804 22.2398 10.2653 22.3061 9.83518 22.4387C9.29772 22.6043 8.65358 22.7633 7.9637 22.9067C5.6579 23.3859 4.50501 23.6255 4.4795 24.1403C4.454 24.6552 5.49746 24.9824 7.58437 25.6369C19.1181 29.254 28.0395 23.002 27.3206 12.2862V12.2862C27.2933 11.8801 27.2797 11.677 27.329 11.5435C27.3783 11.41 27.5772 11.2066 27.9752 10.7996Z" fill="url(#paint0_linear_951_5037)"/>
<defs>
<linearGradient id="paint0_linear_951_5037" x1="2.66675" y1="5.33398" x2="23.4797" y2="31.3501" gradientUnits="userSpaceOnUse">
<stop stop-color="#C0B3FF"/>
<stop offset="1" stop-color="#3936D5"/>
</linearGradient>
</defs>
</svg>
