<svg width="29" height="31" viewBox="0 0 29 31" fill="none" xmlns="http://www.w3.org/2000/svg">
<path d="M8.54339 1.34688V29.8409C8.55197 29.9661 8.52918 30.0914 8.4768 30.2072C8.42441 30.3229 8.34383 30.426 8.24131 30.5084C8.01656 30.6746 7.73327 30.7585 7.44568 30.744H0.948793C0.32761 30.744 0.00850935 30.477 0 29.9587V1.34688C0.00964483 1.11595 0.105894 0.895283 0.272299 0.722584C0.355406 0.632774 0.459394 0.561421 0.57652 0.513834C0.693646 0.466247 0.820895 0.443654 0.948793 0.447735H7.5095C7.7605 0.460092 7.9993 0.551568 8.186 0.706878C8.29896 0.777325 8.39091 0.872869 8.45336 0.984712C8.51582 1.09656 8.54678 1.2211 8.54339 1.34688Z" fill="#001835"/>
<path d="M28.0821 1.30341V29.8406C28.0931 29.967 28.0723 30.0941 28.0214 30.2119C27.9705 30.3297 27.8908 30.4351 27.7886 30.5199C27.5786 30.6736 27.3161 30.753 27.0483 30.7437H20.5216C20.2613 30.7545 20.0062 30.6746 19.8068 30.5199C19.7088 30.4326 19.6329 30.3265 19.5844 30.2091C19.5358 30.0917 19.5159 29.9659 19.526 29.8406V1.3466C19.5245 1.22924 19.5486 1.1128 19.5968 1.00421C19.6451 0.895611 19.7165 0.797073 19.8068 0.71445C19.8975 0.624392 20.0085 0.553806 20.132 0.507672C20.2556 0.461539 20.3885 0.440982 20.5216 0.447454H26.9759C27.2511 0.441546 27.5216 0.514226 27.7503 0.655554C27.8613 0.728119 27.9501 0.825857 28.0082 0.939337C28.0664 1.05282 28.0918 1.17821 28.0821 1.30341Z" fill="#001835"/>
<path d="M8.54339 21.8819L1.05091 30.7281H0.948793C0.32761 30.7281 0.00850935 30.4611 0 29.9428V19.4161L8.54339 9.26633L14.0404 15.313L8.54339 21.8819ZM19.5247 21.3911L28.0809 11.2884V1.30356C28.091 1.17871 28.0662 1.05355 28.0088 0.940104C27.9515 0.826652 27.8635 0.728717 27.7533 0.655699C27.5245 0.514371 27.2541 0.441692 26.9789 0.447599H26.6258L19.5247 8.82657L14.0404 15.313L19.5247 21.3911Z" fill="url(#paint0_radial_1100_2184)"/>
<defs>
<radialGradient id="paint0_radial_1100_2184" cx="0" cy="0" r="1" gradientUnits="userSpaceOnUse" gradientTransform="translate(3.21228 33.6572) scale(42.4404 39.166)">
<stop stop-color="#003EFF"/>
<stop offset="0.02" stop-color="#083DFB"/>
<stop offset="0.41" stop-color="#B82CA0"/>
<stop offset="0.58" stop-color="#FF257B"/>
<stop offset="0.65" stop-color="#FF396A"/>
<stop offset="0.8" stop-color="#FF6C3F"/>
<stop offset="1" stop-color="#FFB700"/>
</radialGradient>
</defs>
</svg>
