<svg width="52" height="50" viewBox="0 0 52 50" fill="none" xmlns="http://www.w3.org/2000/svg">
<path d="M0 19.3714C0 13.2909 0 10.2506 1.18336 7.9281C2.22427 5.8852 3.8852 4.22427 5.9281 3.18336C8.25057 2 11.2909 2 17.3714 2H30.6286C36.7091 2 39.7494 2 42.0719 3.18336C44.1148 4.22427 45.7757 5.8852 46.8166 7.9281C48 10.2506 48 13.2909 48 19.3714V32.6286C48 38.7091 48 41.7494 46.8166 44.0719C45.7757 46.1148 44.1148 47.7757 42.0719 48.8166C39.7494 50 36.7091 50 30.6286 50H17.3714C11.2909 50 8.25057 50 5.9281 48.8166C3.8852 47.7757 2.22427 46.1148 1.18336 44.0719C0 41.7494 0 38.7091 0 32.6286V19.3714Z" fill="#EAF0FF"/>
<path fill-rule="evenodd" clip-rule="evenodd" d="M14.8165 19.2364V22.4729H13.4083H12V23.6357V24.7984H13.4083H14.8165V26.0194V27.2403H13.4083H12V28.4031V29.5659H13.4083H14.8165V32.7829V36H19.3148C24.1094 36 24.3225 35.9931 25.4083 35.8034C26.9269 35.538 28.3619 34.9814 29.5997 34.1776C29.8214 34.0336 30.1338 33.8151 30.2939 33.692C30.6566 33.4132 31.5008 32.5885 31.8196 32.2016C32.3905 31.5086 32.978 30.5228 33.2692 29.7694L33.3479 29.5659H34.6739H36V28.4031V27.2403H34.9644H33.9288L33.9594 26.8818C33.9969 26.4438 33.9957 25.267 33.9576 24.9962L33.9297 24.7984H34.9649H36V23.6357V22.4729H34.6994H33.3987L33.2285 22.0511C32.8984 21.2327 32.3181 20.3036 31.6718 19.5587C29.9965 17.6278 27.5757 16.4059 24.7339 16.0567C24.3588 16.0106 23.436 16.0006 19.5471 16.0003L14.8165 16V19.2364ZM24.595 18.1455C26.3336 18.4267 27.6345 18.9784 28.8198 19.9374C29.5557 20.5327 30.2687 21.3971 30.679 22.1913C30.7474 22.3236 30.8033 22.4411 30.8033 22.4524C30.8033 22.4636 27.7329 22.4729 23.9802 22.4729H17.157V20.2611V18.0494L20.6777 18.0653C23.7149 18.0791 24.2528 18.0901 24.595 18.1455ZM31.5443 25.0213C31.5848 25.2986 31.5837 26.8067 31.5427 27.0562L31.5125 27.2403H24.3348H17.157V26.0194V24.7984H24.3343H31.5116L31.5443 25.0213ZM30.6255 29.905C30.233 30.6317 29.5436 31.4622 28.8949 31.9898C27.7122 32.9516 26.3744 33.5249 24.6744 33.7986C24.1806 33.8782 24.0101 33.8823 20.6579 33.8964L17.157 33.9112V31.7386V29.5659H23.9829H30.8087L30.6255 29.905Z" fill="#8397FF" stroke="#8397FF" stroke-width="1.16667"/>
<path d="M33 4C33 1.79086 34.7909 0 37 0H48C50.2091 0 52 1.79086 52 4V9C52 11.2091 50.2091 13 48 13H37C34.7909 13 33 11.2091 33 9V4Z" fill="#8397FF"/>
<path d="M35.612 4.712C35.644 3.856 35.924 3.196 36.452 2.732C36.98 2.268 37.696 2.036 38.6 2.036C39.2 2.036 39.712 2.14 40.136 2.348C40.568 2.556 40.892 2.84 41.108 3.2C41.332 3.56 41.444 3.964 41.444 4.412C41.444 4.94 41.312 5.372 41.048 5.708C40.784 6.036 40.476 6.26 40.124 6.38V6.428C40.58 6.58 40.94 6.832 41.204 7.184C41.468 7.536 41.6 7.988 41.6 8.54C41.6 9.036 41.484 9.476 41.252 9.86C41.028 10.236 40.696 10.532 40.256 10.748C39.824 10.964 39.308 11.072 38.708 11.072C37.748 11.072 36.98 10.836 36.404 10.364C35.836 9.892 35.536 9.18 35.504 8.228H37.496C37.504 8.58 37.604 8.86 37.796 9.068C37.988 9.268 38.268 9.368 38.636 9.368C38.948 9.368 39.188 9.28 39.356 9.104C39.532 8.92 39.62 8.68 39.62 8.384C39.62 8 39.496 7.724 39.248 7.556C39.008 7.38 38.62 7.292 38.084 7.292H37.7V5.624H38.084C38.492 5.624 38.82 5.556 39.068 5.42C39.324 5.276 39.452 5.024 39.452 4.664C39.452 4.376 39.372 4.152 39.212 3.992C39.052 3.832 38.832 3.752 38.552 3.752C38.248 3.752 38.02 3.844 37.868 4.028C37.724 4.212 37.64 4.44 37.616 4.712H35.612ZM42.8056 6.5C42.8056 5.124 43.0696 4.04 43.5976 3.248C44.1336 2.456 44.9936 2.06 46.1776 2.06C47.3616 2.06 48.2176 2.456 48.7456 3.248C49.2816 4.04 49.5496 5.124 49.5496 6.5C49.5496 7.892 49.2816 8.984 48.7456 9.776C48.2176 10.568 47.3616 10.964 46.1776 10.964C44.9936 10.964 44.1336 10.568 43.5976 9.776C43.0696 8.984 42.8056 7.892 42.8056 6.5ZM47.5336 6.5C47.5336 5.692 47.4456 5.072 47.2696 4.64C47.0936 4.2 46.7296 3.98 46.1776 3.98C45.6256 3.98 45.2616 4.2 45.0856 4.64C44.9096 5.072 44.8216 5.692 44.8216 6.5C44.8216 7.044 44.8536 7.496 44.9176 7.856C44.9816 8.208 45.1096 8.496 45.3016 8.72C45.5016 8.936 45.7936 9.044 46.1776 9.044C46.5616 9.044 46.8496 8.936 47.0416 8.72C47.2416 8.496 47.3736 8.208 47.4376 7.856C47.5016 7.496 47.5336 7.044 47.5336 6.5Z" fill="white"/>
</svg>
