<svg width="52" height="50" viewBox="0 0 52 50" fill="none" xmlns="http://www.w3.org/2000/svg">
<path d="M0 19.3714C0 13.2909 0 10.2506 1.18336 7.9281C2.22427 5.8852 3.8852 4.22427 5.9281 3.18336C8.25057 2 11.2909 2 17.3714 2H30.6286C36.7091 2 39.7494 2 42.0719 3.18336C44.1148 4.22427 45.7757 5.8852 46.8166 7.9281C48 10.2506 48 13.2909 48 19.3714V32.6286C48 38.7091 48 41.7494 46.8166 44.0719C45.7757 46.1148 44.1148 47.7757 42.0719 48.8166C39.7494 50 36.7091 50 30.6286 50H17.3714C11.2909 50 8.25057 50 5.9281 48.8166C3.8852 47.7757 2.22427 46.1148 1.18336 44.0719C0 41.7494 0 38.7091 0 32.6286V19.3714Z" fill="#EAF0FF"/>
<path fill-rule="evenodd" clip-rule="evenodd" d="M14.8165 19.2364V22.4729H13.4083H12V23.6357V24.7984H13.4083H14.8165V26.0194V27.2403H13.4083H12V28.4031V29.5659H13.4083H14.8165V32.7829V36H19.3148C24.1094 36 24.3225 35.9931 25.4083 35.8034C26.9269 35.538 28.3619 34.9814 29.5997 34.1776C29.8214 34.0336 30.1338 33.8151 30.2939 33.692C30.6566 33.4132 31.5008 32.5885 31.8196 32.2016C32.3905 31.5086 32.978 30.5228 33.2692 29.7694L33.3479 29.5659H34.6739H36V28.4031V27.2403H34.9644H33.9288L33.9594 26.8818C33.9969 26.4438 33.9957 25.267 33.9576 24.9962L33.9297 24.7984H34.9649H36V23.6357V22.4729H34.6994H33.3987L33.2285 22.0511C32.8984 21.2327 32.3181 20.3036 31.6718 19.5587C29.9965 17.6278 27.5757 16.4059 24.7339 16.0567C24.3588 16.0106 23.436 16.0006 19.5471 16.0003L14.8165 16V19.2364ZM24.595 18.1455C26.3336 18.4267 27.6345 18.9784 28.8198 19.9374C29.5557 20.5327 30.2687 21.3971 30.679 22.1913C30.7474 22.3236 30.8033 22.4411 30.8033 22.4524C30.8033 22.4636 27.7329 22.4729 23.9802 22.4729H17.157V20.2611V18.0494L20.6777 18.0653C23.7149 18.0791 24.2528 18.0901 24.595 18.1455ZM31.5443 25.0213C31.5848 25.2986 31.5837 26.8067 31.5427 27.0562L31.5125 27.2403H24.3348H17.157V26.0194V24.7984H24.3343H31.5116L31.5443 25.0213ZM30.6255 29.905C30.233 30.6317 29.5436 31.4622 28.8949 31.9898C27.7122 32.9516 26.3744 33.5249 24.6744 33.7986C24.1806 33.8782 24.0101 33.8823 20.6579 33.8964L17.157 33.9112V31.7386V29.5659H23.9829H30.8087L30.6255 29.905Z" fill="#8397FF" stroke="#8397FF" stroke-width="1.16667"/>
<path d="M37 4C37 1.79086 38.7909 0 41 0H48C50.2091 0 52 1.79086 52 4V9C52 11.2091 50.2091 13 48 13H41C38.7909 13 37 11.2091 37 9V4Z" fill="#8397FF"/>
<path d="M47.708 4.028H43.964V5.684C44.124 5.508 44.348 5.364 44.636 5.252C44.924 5.14 45.236 5.084 45.572 5.084C46.172 5.084 46.668 5.22 47.06 5.492C47.46 5.764 47.752 6.116 47.936 6.548C48.12 6.98 48.212 7.448 48.212 7.952C48.212 8.888 47.948 9.632 47.42 10.184C46.892 10.728 46.148 11 45.188 11C44.548 11 43.992 10.892 43.52 10.676C43.048 10.452 42.684 10.144 42.428 9.752C42.172 9.36 42.032 8.908 42.008 8.396H44.012C44.06 8.644 44.176 8.852 44.36 9.02C44.544 9.18 44.796 9.26 45.116 9.26C45.492 9.26 45.772 9.14 45.956 8.9C46.14 8.66 46.232 8.34 46.232 7.94C46.232 7.548 46.136 7.248 45.944 7.04C45.752 6.832 45.472 6.728 45.104 6.728C44.832 6.728 44.608 6.796 44.432 6.932C44.256 7.06 44.14 7.232 44.084 7.448H42.104V2.228H47.708V4.028Z" fill="white"/>
</svg>
