<svg width="52" height="50" viewBox="0 0 52 50" fill="none" xmlns="http://www.w3.org/2000/svg">
<path d="M0 19.3714C0 13.2909 0 10.2506 1.18336 7.9281C2.22427 5.8852 3.8852 4.22427 5.9281 3.18336C8.25057 2 11.2909 2 17.3714 2H30.6286C36.7091 2 39.7494 2 42.0719 3.18336C44.1148 4.22427 45.7757 5.8852 46.8166 7.9281C48 10.2506 48 13.2909 48 19.3714V32.6286C48 38.7091 48 41.7494 46.8166 44.0719C45.7757 46.1148 44.1148 47.7757 42.0719 48.8166C39.7494 50 36.7091 50 30.6286 50H17.3714C11.2909 50 8.25057 50 5.9281 48.8166C3.8852 47.7757 2.22427 46.1148 1.18336 44.0719C0 41.7494 0 38.7091 0 32.6286V19.3714Z" fill="#EAF0FF"/>
<path fill-rule="evenodd" clip-rule="evenodd" d="M14.8165 19.2364V22.4729H13.4083H12V23.6357V24.7984H13.4083H14.8165V26.0194V27.2403H13.4083H12V28.4031V29.5659H13.4083H14.8165V32.7829V36H19.3148C24.1094 36 24.3225 35.9931 25.4083 35.8034C26.9269 35.538 28.3619 34.9814 29.5997 34.1776C29.8214 34.0336 30.1338 33.8151 30.2939 33.692C30.6566 33.4132 31.5008 32.5885 31.8196 32.2016C32.3905 31.5086 32.978 30.5228 33.2692 29.7694L33.3479 29.5659H34.6739H36V28.4031V27.2403H34.9644H33.9288L33.9594 26.8818C33.9969 26.4438 33.9957 25.267 33.9576 24.9962L33.9297 24.7984H34.9649H36V23.6357V22.4729H34.6994H33.3987L33.2285 22.0511C32.8984 21.2327 32.3181 20.3036 31.6718 19.5587C29.9965 17.6278 27.5757 16.4059 24.7339 16.0567C24.3588 16.0106 23.436 16.0006 19.5471 16.0003L14.8165 16V19.2364ZM24.595 18.1455C26.3336 18.4267 27.6345 18.9784 28.8198 19.9374C29.5557 20.5327 30.2687 21.3971 30.679 22.1913C30.7474 22.3236 30.8033 22.4411 30.8033 22.4524C30.8033 22.4636 27.7329 22.4729 23.9802 22.4729H17.157V20.2611V18.0494L20.6777 18.0653C23.7149 18.0791 24.2528 18.0901 24.595 18.1455ZM31.5443 25.0213C31.5848 25.2986 31.5837 26.8067 31.5427 27.0562L31.5125 27.2403H24.3348H17.157V26.0194V24.7984H24.3343H31.5116L31.5443 25.0213ZM30.6255 29.905C30.233 30.6317 29.5436 31.4622 28.8949 31.9898C27.7122 32.9516 26.3744 33.5249 24.6744 33.7986C24.1806 33.8782 24.0101 33.8823 20.6579 33.8964L17.157 33.9112V31.7386V29.5659H23.9829H30.8087L30.6255 29.905Z" fill="#8397FF" stroke="#8397FF" stroke-width="1.16667"/>
<path d="M33 4C33 1.79086 34.7909 0 37 0H48C50.2091 0 52 1.79086 52 4V9C52 11.2091 50.2091 13 48 13H37C34.7909 13 33 11.2091 33 9V4Z" fill="#8397FF"/>
<path d="M39.872 4.604C39.808 4.308 39.696 4.088 39.536 3.944C39.376 3.792 39.148 3.716 38.852 3.716C38.396 3.716 38.068 3.916 37.868 4.316C37.668 4.708 37.564 5.332 37.556 6.188C37.732 5.908 37.984 5.688 38.312 5.528C38.648 5.368 39.016 5.288 39.416 5.288C40.2 5.288 40.828 5.536 41.3 6.032C41.78 6.528 42.02 7.22 42.02 8.108C42.02 8.692 41.9 9.204 41.66 9.644C41.428 10.084 41.084 10.428 40.628 10.676C40.18 10.924 39.648 11.048 39.032 11.048C37.8 11.048 36.944 10.664 36.464 9.896C35.984 9.12 35.744 8.008 35.744 6.56C35.744 5.04 35.996 3.912 36.5 3.176C37.012 2.432 37.828 2.06 38.948 2.06C39.548 2.06 40.052 2.18 40.46 2.42C40.876 2.652 41.188 2.96 41.396 3.344C41.612 3.728 41.74 4.148 41.78 4.604H39.872ZM38.924 6.908C38.58 6.908 38.292 7.012 38.06 7.22C37.836 7.42 37.724 7.708 37.724 8.084C37.724 8.468 37.828 8.768 38.036 8.984C38.252 9.2 38.556 9.308 38.948 9.308C39.3 9.308 39.576 9.204 39.776 8.996C39.984 8.78 40.088 8.488 40.088 8.12C40.088 7.744 39.988 7.448 39.788 7.232C39.588 7.016 39.3 6.908 38.924 6.908ZM43.1806 6.5C43.1806 5.124 43.4446 4.04 43.9726 3.248C44.5086 2.456 45.3686 2.06 46.5526 2.06C47.7366 2.06 48.5926 2.456 49.1206 3.248C49.6566 4.04 49.9246 5.124 49.9246 6.5C49.9246 7.892 49.6566 8.984 49.1206 9.776C48.5926 10.568 47.7366 10.964 46.5526 10.964C45.3686 10.964 44.5086 10.568 43.9726 9.776C43.4446 8.984 43.1806 7.892 43.1806 6.5ZM47.9086 6.5C47.9086 5.692 47.8206 5.072 47.6446 4.64C47.4686 4.2 47.1046 3.98 46.5526 3.98C46.0006 3.98 45.6366 4.2 45.4606 4.64C45.2846 5.072 45.1966 5.692 45.1966 6.5C45.1966 7.044 45.2286 7.496 45.2926 7.856C45.3566 8.208 45.4846 8.496 45.6766 8.72C45.8766 8.936 46.1686 9.044 46.5526 9.044C46.9366 9.044 47.2246 8.936 47.4166 8.72C47.6166 8.496 47.7486 8.208 47.8126 7.856C47.8766 7.496 47.9086 7.044 47.9086 6.5Z" fill="white"/>
</svg>
