<svg width="52" height="50" viewBox="0 0 52 50" fill="none" xmlns="http://www.w3.org/2000/svg">
<path d="M0 19.3714C0 13.2909 0 10.2506 1.18336 7.9281C2.22427 5.8852 3.8852 4.22427 5.9281 3.18336C8.25057 2 11.2909 2 17.3714 2H30.6286C36.7091 2 39.7494 2 42.0719 3.18336C44.1148 4.22427 45.7757 5.8852 46.8166 7.9281C48 10.2506 48 13.2909 48 19.3714V32.6286C48 38.7091 48 41.7494 46.8166 44.0719C45.7757 46.1148 44.1148 47.7757 42.0719 48.8166C39.7494 50 36.7091 50 30.6286 50H17.3714C11.2909 50 8.25057 50 5.9281 48.8166C3.8852 47.7757 2.22427 46.1148 1.18336 44.0719C0 41.7494 0 38.7091 0 32.6286V19.3714Z" fill="#EAF0FF"/>
<path fill-rule="evenodd" clip-rule="evenodd" d="M14.8165 19.2364V22.4729H13.4083H12V23.6357V24.7984H13.4083H14.8165V26.0194V27.2403H13.4083H12V28.4031V29.5659H13.4083H14.8165V32.7829V36H19.3148C24.1094 36 24.3225 35.9931 25.4083 35.8034C26.9269 35.538 28.3619 34.9814 29.5997 34.1776C29.8214 34.0336 30.1338 33.8151 30.2939 33.692C30.6566 33.4132 31.5008 32.5885 31.8196 32.2016C32.3905 31.5086 32.978 30.5228 33.2692 29.7694L33.3479 29.5659H34.6739H36V28.4031V27.2403H34.9644H33.9288L33.9594 26.8818C33.9969 26.4438 33.9957 25.267 33.9576 24.9962L33.9297 24.7984H34.9649H36V23.6357V22.4729H34.6994H33.3987L33.2285 22.0511C32.8984 21.2327 32.3181 20.3036 31.6718 19.5587C29.9965 17.6278 27.5757 16.4059 24.7339 16.0567C24.3588 16.0106 23.436 16.0006 19.5471 16.0003L14.8165 16V19.2364ZM24.595 18.1455C26.3336 18.4267 27.6345 18.9784 28.8198 19.9374C29.5557 20.5327 30.2687 21.3971 30.679 22.1913C30.7474 22.3236 30.8033 22.4411 30.8033 22.4524C30.8033 22.4636 27.7329 22.4729 23.9802 22.4729H17.157V20.2611V18.0494L20.6777 18.0653C23.7149 18.0791 24.2528 18.0901 24.595 18.1455ZM31.5443 25.0213C31.5848 25.2986 31.5837 26.8067 31.5427 27.0562L31.5125 27.2403H24.3348H17.157V26.0194V24.7984H24.3343H31.5116L31.5443 25.0213ZM30.6255 29.905C30.233 30.6317 29.5436 31.4622 28.8949 31.9898C27.7122 32.9516 26.3744 33.5249 24.6744 33.7986C24.1806 33.8782 24.0101 33.8823 20.6579 33.8964L17.157 33.9112V31.7386V29.5659H23.9829H30.8087L30.6255 29.905Z" fill="#8397FF" stroke="#8397FF" stroke-width="1.16667"/>
<path d="M33 4C33 1.79086 34.7909 0 37 0H48C50.2091 0 52 1.79086 52 4V9C52 11.2091 50.2091 13 48 13H37C34.7909 13 33 11.2091 33 9V4Z" fill="#8397FF"/>
<path d="M34.588 9.44V7.784L38.38 2.36H40.672V7.664H41.656V9.44H40.672V11H38.62V9.44H34.588ZM38.764 4.616L36.748 7.664H38.764V4.616ZM48.8291 4.028H45.0851V5.684C45.2451 5.508 45.4691 5.364 45.7571 5.252C46.0451 5.14 46.3571 5.084 46.6931 5.084C47.2931 5.084 47.7891 5.22 48.1811 5.492C48.5811 5.764 48.8731 6.116 49.0571 6.548C49.2411 6.98 49.3331 7.448 49.3331 7.952C49.3331 8.888 49.0691 9.632 48.5411 10.184C48.0131 10.728 47.2691 11 46.3091 11C45.6691 11 45.1131 10.892 44.6411 10.676C44.1691 10.452 43.8051 10.144 43.5491 9.752C43.2931 9.36 43.1531 8.908 43.1291 8.396H45.1331C45.1811 8.644 45.2971 8.852 45.4811 9.02C45.6651 9.18 45.9171 9.26 46.2371 9.26C46.6131 9.26 46.8931 9.14 47.0771 8.9C47.2611 8.66 47.3531 8.34 47.3531 7.94C47.3531 7.548 47.2571 7.248 47.0651 7.04C46.8731 6.832 46.5931 6.728 46.2251 6.728C45.9531 6.728 45.7291 6.796 45.5531 6.932C45.3771 7.06 45.2611 7.232 45.2051 7.448H43.2251V2.228H48.8291V4.028Z" fill="white"/>
</svg>
