<svg width="52" height="50" viewBox="0 0 52 50" fill="none" xmlns="http://www.w3.org/2000/svg">
<path d="M0 19.3714C0 13.2909 0 10.2506 1.18336 7.9281C2.22427 5.8852 3.8852 4.22427 5.9281 3.18336C8.25057 2 11.2909 2 17.3714 2H30.6286C36.7091 2 39.7494 2 42.0719 3.18336C44.1148 4.22427 45.7757 5.8852 46.8166 7.9281C48 10.2506 48 13.2909 48 19.3714V32.6286C48 38.7091 48 41.7494 46.8166 44.0719C45.7757 46.1148 44.1148 47.7757 42.0719 48.8166C39.7494 50 36.7091 50 30.6286 50H17.3714C11.2909 50 8.25057 50 5.9281 48.8166C3.8852 47.7757 2.22427 46.1148 1.18336 44.0719C0 41.7494 0 38.7091 0 32.6286V19.3714Z" fill="#FFF2EE"/>
<path d="M23.4067 33.1142C23.4067 32.8893 23.3932 32.6512 23.4067 32.4263C23.4203 32.2015 23.3254 32.1221 23.1084 32.0824C22.3084 31.9369 21.5625 31.6855 20.9117 31.1961C20.1116 30.5744 19.6506 29.7674 19.4607 28.8018C19.3522 28.2726 19.5692 28.061 20.1116 28.061C20.437 28.061 20.7625 28.061 21.0879 28.061C21.5219 28.061 21.6846 28.1933 21.7931 28.6166C21.9829 29.397 22.4168 30.0055 23.2305 30.2304C24.3153 30.5347 25.4001 30.614 26.3764 29.8997C27.2036 29.3044 27.2714 28.4446 26.9731 27.6112C26.8782 27.3334 26.6069 27.135 26.3357 26.9895C25.7255 26.6588 25.034 26.5397 24.356 26.4471C23.4203 26.3148 22.4846 26.1429 21.6168 25.746C20.3964 25.2036 19.8133 24.2644 19.7455 22.9945C19.6234 20.8515 21.1151 19.5419 23.0406 19.1583C23.3118 19.1054 23.4339 19.026 23.4067 18.735C23.3796 18.3249 23.3932 17.9148 23.4067 17.518C23.4067 17.055 23.6237 16.8433 24.0847 16.8301C24.3831 16.8301 24.6678 16.8169 24.9662 16.8301C25.4408 16.8433 25.6577 17.055 25.6577 17.5312C25.6577 17.9545 25.6713 18.391 25.6577 18.8144C25.6442 19.0392 25.7391 19.1451 25.9561 19.198C26.729 19.3699 27.4206 19.7007 27.9901 20.243C28.5189 20.7589 28.8308 21.4071 28.9935 22.1214C29.0613 22.3992 28.8173 22.6903 28.4918 22.7035C28.085 22.7299 27.6782 22.7167 27.2714 22.7035C27.0409 22.6903 26.8375 22.5712 26.7561 22.3331C26.3629 21.0499 25.3865 20.7854 24.1932 20.7986C23.7051 20.8118 23.2033 20.878 22.7694 21.1425C22.2134 21.4865 22.0236 21.9892 22.0372 22.6109C22.0507 23.2062 22.3084 23.6427 22.8643 23.9073C23.6373 24.2777 24.4916 24.3306 25.3323 24.4761C26.3493 24.6481 27.3663 24.8597 28.2342 25.4814C29.0342 26.0503 29.3461 26.8572 29.441 27.7832C29.6309 29.8336 28.3698 31.3548 26.4985 31.9104C25.6577 32.1618 25.6577 32.1353 25.6577 32.9819C25.6577 33.2465 25.6577 33.5111 25.6577 33.7756C25.6442 34.1592 25.4272 34.3841 25.0204 34.3841C24.7085 34.3841 24.3831 34.3841 24.0712 34.3841C23.6237 34.3841 23.4203 34.1725 23.4067 33.7227C23.4067 33.5375 23.4067 33.3259 23.4067 33.1142Z" fill="#FF9D86" stroke="#FF9D86" stroke-width="0.933326"/>
<path d="M11 25.7204C11 23.1276 11.7323 20.6142 13.2781 18.3257C14.5257 16.487 16.1393 15.0716 18.1056 14.0265C18.8514 13.6297 19.6243 13.299 20.4379 13.0608C20.8583 12.9418 21.1295 13.127 21.143 13.5503C21.1566 13.881 21.143 14.2117 21.143 14.5424C21.143 14.9128 20.9668 15.1774 20.6142 15.3097C19.448 15.7462 18.3768 16.3415 17.4004 17.1087C16.2071 18.0612 15.2715 19.1988 14.5663 20.5084C13.4815 22.5059 13.0883 24.6357 13.3324 26.8713C13.4951 28.2867 13.9426 29.6492 14.6477 30.9059C15.3664 32.1758 16.302 33.2738 17.4682 34.1865C18.3632 34.9009 19.3667 35.4565 20.4379 35.8665C21.0074 36.0782 21.1295 36.2369 21.1295 36.819C21.1295 37.11 21.143 37.4143 21.1295 37.7053C21.1159 38.0757 20.8176 38.2873 20.4515 38.1815C18.8107 37.6788 17.3191 36.8851 15.9766 35.8268C14.6477 34.7686 13.5629 33.5119 12.7221 32.0568C11.9085 30.6281 11.3661 29.1068 11.1492 27.493C11.0814 26.9638 11.0407 26.4083 11 25.7204Z" fill="#FF9D86" stroke="#FF9D86" stroke-width="0.933326"/>
<path d="M38.0674 26.1173C38.0403 28.6306 37.1046 31.3689 35.1926 33.75C33.6739 35.6285 31.7754 37.0307 29.4838 37.8905C29.199 37.9963 28.9142 38.0889 28.6295 38.1815C28.2905 38.3006 27.9786 38.1022 27.965 37.745C27.9515 37.3614 27.965 36.9777 27.965 36.5941C27.965 36.3031 28.1142 36.0914 28.3989 35.9856C29.199 35.6549 29.9855 35.311 30.7177 34.8347C32.5484 33.6442 33.9451 32.07 34.84 30.099C35.6672 28.2735 36.0062 26.3686 35.7621 24.3976C35.4774 22.0826 34.5553 20.0454 32.9552 18.2861C32.006 17.2543 30.894 16.4341 29.66 15.7859C29.2804 15.5875 28.86 15.442 28.4532 15.27C28.1413 15.1377 27.965 14.9261 27.965 14.5821C27.965 14.225 27.9515 13.8546 27.965 13.4974C27.9786 13.1138 28.2633 12.9154 28.6295 13.0344C30.0397 13.4709 31.3415 14.1059 32.5348 14.9658C34.1349 16.0902 35.396 17.5056 36.3588 19.1856C36.9554 20.2306 37.4029 21.3154 37.6877 22.4927C37.9182 23.5245 38.0674 24.5563 38.0674 26.1173Z" fill="#FF9D86" stroke="#FF9D86" stroke-width="0.933326"/>
<path d="M33 4C33 1.79086 34.7909 0 37 0H48C50.2091 0 52 1.79086 52 4V9C52 11.2091 50.2091 13 48 13H37C34.7909 13 33 11.2091 33 9V4Z" fill="#FF9D86"/>
<path d="M39.872 4.604C39.808 4.308 39.696 4.088 39.536 3.944C39.376 3.792 39.148 3.716 38.852 3.716C38.396 3.716 38.068 3.916 37.868 4.316C37.668 4.708 37.564 5.332 37.556 6.188C37.732 5.908 37.984 5.688 38.312 5.528C38.648 5.368 39.016 5.288 39.416 5.288C40.2 5.288 40.828 5.536 41.3 6.032C41.78 6.528 42.02 7.22 42.02 8.108C42.02 8.692 41.9 9.204 41.66 9.644C41.428 10.084 41.084 10.428 40.628 10.676C40.18 10.924 39.648 11.048 39.032 11.048C37.8 11.048 36.944 10.664 36.464 9.896C35.984 9.12 35.744 8.008 35.744 6.56C35.744 5.04 35.996 3.912 36.5 3.176C37.012 2.432 37.828 2.06 38.948 2.06C39.548 2.06 40.052 2.18 40.46 2.42C40.876 2.652 41.188 2.96 41.396 3.344C41.612 3.728 41.74 4.148 41.78 4.604H39.872ZM38.924 6.908C38.58 6.908 38.292 7.012 38.06 7.22C37.836 7.42 37.724 7.708 37.724 8.084C37.724 8.468 37.828 8.768 38.036 8.984C38.252 9.2 38.556 9.308 38.948 9.308C39.3 9.308 39.576 9.204 39.776 8.996C39.984 8.78 40.088 8.488 40.088 8.12C40.088 7.744 39.988 7.448 39.788 7.232C39.588 7.016 39.3 6.908 38.924 6.908ZM43.1806 6.5C43.1806 5.124 43.4446 4.04 43.9726 3.248C44.5086 2.456 45.3686 2.06 46.5526 2.06C47.7366 2.06 48.5926 2.456 49.1206 3.248C49.6566 4.04 49.9246 5.124 49.9246 6.5C49.9246 7.892 49.6566 8.984 49.1206 9.776C48.5926 10.568 47.7366 10.964 46.5526 10.964C45.3686 10.964 44.5086 10.568 43.9726 9.776C43.4446 8.984 43.1806 7.892 43.1806 6.5ZM47.9086 6.5C47.9086 5.692 47.8206 5.072 47.6446 4.64C47.4686 4.2 47.1046 3.98 46.5526 3.98C46.0006 3.98 45.6366 4.2 45.4606 4.64C45.2846 5.072 45.1966 5.692 45.1966 6.5C45.1966 7.044 45.2286 7.496 45.2926 7.856C45.3566 8.208 45.4846 8.496 45.6766 8.72C45.8766 8.936 46.1686 9.044 46.5526 9.044C46.9366 9.044 47.2246 8.936 47.4166 8.72C47.6166 8.496 47.7486 8.208 47.8126 7.856C47.8766 7.496 47.9086 7.044 47.9086 6.5Z" fill="white"/>
</svg>
