<svg width="52" height="51" viewBox="0 0 52 51" fill="none" xmlns="http://www.w3.org/2000/svg">
<path d="M0 20.3714C0 14.2909 0 11.2506 1.18336 8.9281C2.22427 6.8852 3.8852 5.22427 5.9281 4.18336C8.25057 3 11.2909 3 17.3714 3H30.6286C36.7091 3 39.7494 3 42.0719 4.18336C44.1148 5.22427 45.7757 6.8852 46.8166 8.9281C48 11.2506 48 14.2909 48 20.3714V33.6286C48 39.7091 48 42.7494 46.8166 45.0719C45.7757 47.1148 44.1148 48.7757 42.0719 49.8166C39.7494 51 36.7091 51 30.6286 51H17.3714C11.2909 51 8.25057 51 5.9281 49.8166C3.8852 48.7757 2.22427 47.1148 1.18336 45.0719C0 42.7494 0 39.7091 0 33.6286V20.3714Z" fill="#FFF2EE"/>
<path d="M22.4067 34.1142C22.4067 33.8893 22.3932 33.6512 22.4067 33.4263C22.4203 33.2015 22.3254 33.1221 22.1084 33.0824C21.3084 32.9369 20.5625 32.6855 19.9117 32.1961C19.1116 31.5744 18.6506 30.7674 18.4607 29.8018C18.3522 29.2726 18.5692 29.061 19.1116 29.061C19.437 29.061 19.7625 29.061 20.0879 29.061C20.5219 29.061 20.6846 29.1933 20.7931 29.6166C20.9829 30.397 21.4168 31.0055 22.2305 31.2304C23.3153 31.5347 24.4001 31.614 25.3764 30.8997C26.2036 30.3044 26.2714 29.4446 25.9731 28.6112C25.8782 28.3334 25.6069 28.135 25.3357 27.9895C24.7255 27.6588 24.034 27.5397 23.356 27.4471C22.4203 27.3148 21.4846 27.1429 20.6168 26.746C19.3964 26.2036 18.8133 25.2644 18.7455 23.9945C18.6234 21.8515 20.1151 20.5419 22.0406 20.1583C22.3118 20.1054 22.4339 20.026 22.4067 19.735C22.3796 19.3249 22.3932 18.9148 22.4067 18.518C22.4067 18.055 22.6237 17.8433 23.0847 17.8301C23.3831 17.8301 23.6678 17.8169 23.9662 17.8301C24.4408 17.8433 24.6577 18.055 24.6577 18.5312C24.6577 18.9545 24.6713 19.391 24.6577 19.8144C24.6442 20.0392 24.7391 20.1451 24.9561 20.198C25.729 20.3699 26.4206 20.7007 26.9901 21.243C27.5189 21.7589 27.8308 22.4071 27.9935 23.1214C28.0613 23.3992 27.8173 23.6903 27.4918 23.7035C27.085 23.7299 26.6782 23.7167 26.2714 23.7035C26.0409 23.6903 25.8375 23.5712 25.7561 23.3331C25.3629 22.0499 24.3865 21.7854 23.1932 21.7986C22.7051 21.8118 22.2033 21.878 21.7694 22.1425C21.2134 22.4865 21.0236 22.9892 21.0372 23.6109C21.0507 24.2062 21.3084 24.6427 21.8643 24.9073C22.6373 25.2777 23.4916 25.3306 24.3323 25.4761C25.3493 25.6481 26.3663 25.8597 27.2342 26.4814C28.0342 27.0503 28.3461 27.8572 28.441 28.7832C28.6309 30.8336 27.3698 32.3548 25.4985 32.9104C24.6577 33.1618 24.6577 33.1353 24.6577 33.9819C24.6577 34.2465 24.6577 34.5111 24.6577 34.7756C24.6442 35.1592 24.4272 35.3841 24.0204 35.3841C23.7085 35.3841 23.3831 35.3841 23.0712 35.3841C22.6237 35.3841 22.4203 35.1725 22.4067 34.7227C22.4067 34.5375 22.4067 34.3259 22.4067 34.1142Z" fill="#FF9D86" stroke="#FF9D86" stroke-width="0.933326"/>
<path d="M10 26.7204C10 24.1276 10.7323 21.6142 12.2781 19.3257C13.5257 17.487 15.1393 16.0716 17.1056 15.0265C17.8514 14.6297 18.6243 14.299 19.4379 14.0608C19.8583 13.9418 20.1295 14.127 20.143 14.5503C20.1566 14.881 20.143 15.2117 20.143 15.5424C20.143 15.9128 19.9668 16.1774 19.6142 16.3097C18.448 16.7462 17.3768 17.3415 16.4004 18.1087C15.2071 19.0612 14.2715 20.1988 13.5663 21.5084C12.4815 23.5059 12.0883 25.6357 12.3324 27.8713C12.4951 29.2867 12.9426 30.6492 13.6477 31.9059C14.3664 33.1758 15.302 34.2738 16.4682 35.1865C17.3632 35.9009 18.3667 36.4565 19.4379 36.8665C20.0074 37.0782 20.1295 37.2369 20.1295 37.819C20.1295 38.11 20.143 38.4143 20.1295 38.7053C20.1159 39.0757 19.8176 39.2873 19.4515 39.1815C17.8107 38.6788 16.3191 37.8851 14.9766 36.8268C13.6477 35.7686 12.5629 34.5119 11.7221 33.0568C10.9085 31.6281 10.3661 30.1068 10.1492 28.493C10.0814 27.9638 10.0407 27.4083 10 26.7204Z" fill="#FF9D86" stroke="#FF9D86" stroke-width="0.933326"/>
<path d="M37.0674 27.1173C37.0403 29.6306 36.1046 32.3689 34.1926 34.75C32.6739 36.6285 30.7754 38.0307 28.4838 38.8905C28.199 38.9963 27.9142 39.0889 27.6295 39.1815C27.2905 39.3006 26.9786 39.1022 26.965 38.745C26.9515 38.3614 26.965 37.9777 26.965 37.5941C26.965 37.3031 27.1142 37.0914 27.3989 36.9856C28.199 36.6549 28.9855 36.311 29.7177 35.8347C31.5484 34.6442 32.9451 33.07 33.84 31.099C34.6672 29.2735 35.0062 27.3686 34.7621 25.3976C34.4774 23.0826 33.5553 21.0454 31.9552 19.2861C31.006 18.2543 29.894 17.4341 28.66 16.7859C28.2804 16.5875 27.86 16.442 27.4532 16.27C27.1413 16.1377 26.965 15.9261 26.965 15.5821C26.965 15.225 26.9515 14.8546 26.965 14.4974C26.9786 14.1138 27.2633 13.9154 27.6295 14.0344C29.0397 14.4709 30.3415 15.1059 31.5348 15.9658C33.1349 17.0902 34.396 18.5056 35.3588 20.1856C35.9554 21.2306 36.4029 22.3154 36.6877 23.4927C36.9182 24.5245 37.0674 25.5563 37.0674 27.1173Z" fill="#FF9D86" stroke="#FF9D86" stroke-width="0.933326"/>
<path d="M33 4C33 1.79086 34.7909 0 37 0H48C50.2091 0 52 1.79086 52 4V9C52 11.2091 50.2091 13 48 13H37C34.7909 13 33 11.2091 33 9V4Z" fill="#FF9D86"/>
<path d="M34.588 9.44V7.784L38.38 2.36H40.672V7.664H41.656V9.44H40.672V11H38.62V9.44H34.588ZM38.764 4.616L36.748 7.664H38.764V4.616ZM48.8291 4.028H45.0851V5.684C45.2451 5.508 45.4691 5.364 45.7571 5.252C46.0451 5.14 46.3571 5.084 46.6931 5.084C47.2931 5.084 47.7891 5.22 48.1811 5.492C48.5811 5.764 48.8731 6.116 49.0571 6.548C49.2411 6.98 49.3331 7.448 49.3331 7.952C49.3331 8.888 49.0691 9.632 48.5411 10.184C48.0131 10.728 47.2691 11 46.3091 11C45.6691 11 45.1131 10.892 44.6411 10.676C44.1691 10.452 43.8051 10.144 43.5491 9.752C43.2931 9.36 43.1531 8.908 43.1291 8.396H45.1331C45.1811 8.644 45.2971 8.852 45.4811 9.02C45.6651 9.18 45.9171 9.26 46.2371 9.26C46.6131 9.26 46.8931 9.14 47.0771 8.9C47.2611 8.66 47.3531 8.34 47.3531 7.94C47.3531 7.548 47.2571 7.248 47.0651 7.04C46.8731 6.832 46.5931 6.728 46.2251 6.728C45.9531 6.728 45.7291 6.796 45.5531 6.932C45.3771 7.06 45.2611 7.232 45.2051 7.448H43.2251V2.228H48.8291V4.028Z" fill="white"/>
</svg>
