<svg width="52" height="50" viewBox="0 0 52 50" fill="none" xmlns="http://www.w3.org/2000/svg">
<path d="M0 19.3714C0 13.2909 0 10.2506 1.18336 7.9281C2.22427 5.8852 3.8852 4.22427 5.9281 3.18336C8.25057 2 11.2909 2 17.3714 2H30.6286C36.7091 2 39.7494 2 42.0719 3.18336C44.1148 4.22427 45.7757 5.8852 46.8166 7.9281C48 10.2506 48 13.2909 48 19.3714V32.6286C48 38.7091 48 41.7494 46.8166 44.0719C45.7757 46.1148 44.1148 47.7757 42.0719 48.8166C39.7494 50 36.7091 50 30.6286 50H17.3714C11.2909 50 8.25057 50 5.9281 48.8166C3.8852 47.7757 2.22427 46.1148 1.18336 44.0719C0 41.7494 0 38.7091 0 32.6286V19.3714Z" fill="#FFF2EE"/>
<path d="M23.3348 33.275C23.3348 33.0424 23.3208 32.796 23.3348 32.5634C23.3488 32.3307 23.2506 32.2486 23.0262 32.2076C22.1985 32.057 21.427 31.797 20.7537 31.2907C19.926 30.6475 19.4491 29.8127 19.2527 28.8137C19.1404 28.2663 19.3649 28.0474 19.926 28.0474C20.2627 28.0474 20.5993 28.0474 20.936 28.0474C21.3849 28.0474 21.5532 28.1842 21.6655 28.6221C21.8619 29.4295 22.3108 30.0591 23.1524 30.2917C24.2747 30.6064 25.3969 30.6886 26.4069 29.9496C27.2626 29.3338 27.3328 28.4442 27.0241 27.5821C26.9259 27.2947 26.6454 27.0894 26.3648 26.9389C25.7336 26.5968 25.0181 26.4736 24.3167 26.3778C23.3488 26.241 22.3809 26.0631 21.4831 25.6525C20.2206 25.0914 19.6174 24.1198 19.5473 22.8061C19.421 20.5891 20.9641 19.2343 22.956 18.8375C23.2366 18.7827 23.3628 18.7006 23.3348 18.3996C23.3067 17.9753 23.3208 17.5511 23.3348 17.1405C23.3348 16.6616 23.5592 16.4426 24.0362 16.4289C24.3448 16.4289 24.6394 16.4152 24.948 16.4289C25.439 16.4426 25.6634 16.6616 25.6634 17.1542C25.6634 17.5921 25.6775 18.0437 25.6634 18.4817C25.6494 18.7143 25.7476 18.8238 25.972 18.8785C26.7716 19.0564 27.4871 19.3985 28.0762 19.9596C28.6233 20.4933 28.946 21.1639 29.1143 21.9029C29.1844 22.1903 28.9319 22.4913 28.5953 22.505C28.1744 22.5324 27.7536 22.5187 27.3328 22.505C27.0943 22.4913 26.8839 22.3682 26.7997 22.1218C26.3929 20.7944 25.3829 20.5207 24.1484 20.5344C23.6434 20.5481 23.1244 20.6165 22.6755 20.8902C22.1003 21.246 21.9039 21.766 21.918 22.4092C21.932 23.025 22.1985 23.4766 22.7737 23.7503C23.5733 24.1335 24.457 24.1882 25.3268 24.3388C26.3789 24.5167 27.4309 24.7356 28.3287 25.3788C29.1564 25.9673 29.479 26.8021 29.5772 27.76C29.7736 29.8811 28.469 31.4549 26.5332 32.0297C25.6634 32.2897 25.6634 32.2623 25.6634 33.1381C25.6634 33.4118 25.6634 33.6855 25.6634 33.9592C25.6494 34.3561 25.425 34.5887 25.0041 34.5887C24.6815 34.5887 24.3448 34.5887 24.0222 34.5887C23.5592 34.5887 23.3488 34.3698 23.3348 33.9045C23.3348 33.7129 23.3348 33.494 23.3348 33.275Z" fill="#FF9D86" stroke="#FF9D86" stroke-width="0.965526"/>
<path d="M10.5 25.6253C10.5 22.943 11.2575 20.3429 12.8567 17.9754C14.1473 16.0732 15.8166 14.609 17.8506 13.5279C18.6222 13.1173 19.4218 12.7752 20.2634 12.5289C20.6983 12.4057 20.9789 12.5973 20.9929 13.0352C21.0069 13.3773 20.9929 13.7194 20.9929 14.0616C20.9929 14.4447 20.8105 14.7184 20.4458 14.8553C19.2394 15.3069 18.1312 15.9227 17.1212 16.7164C15.8867 17.7017 14.9188 18.8786 14.1893 20.2334C13.0671 22.2999 12.6603 24.5031 12.9128 26.8159C13.0811 28.2801 13.5441 29.6897 14.2735 30.9897C15.017 32.3035 15.9849 33.4393 17.1913 34.3836C18.1172 35.1226 19.1552 35.6973 20.2634 36.1216C20.8526 36.3405 20.9789 36.5047 20.9789 37.1069C20.9789 37.4079 20.9929 37.7227 20.9789 38.0238C20.9648 38.4069 20.6562 38.6259 20.2775 38.5164C18.5801 37.9964 17.037 37.1753 15.6483 36.0805C14.2735 34.9857 13.1513 33.6857 12.2815 32.1803C11.4399 30.7024 10.8788 29.1286 10.6543 27.459C10.5842 26.9117 10.5421 26.3369 10.5 25.6253Z" fill="#FF9D86" stroke="#FF9D86" stroke-width="0.965526"/>
<path d="M38.5 26.0357C38.472 28.6359 37.504 31.4686 35.5261 33.9319C33.955 35.8752 31.9911 37.3258 29.6203 38.2153C29.3257 38.3248 29.0312 38.4205 28.7366 38.5163C28.3859 38.6395 28.0632 38.4342 28.0492 38.0647C28.0352 37.6679 28.0492 37.271 28.0492 36.8742C28.0492 36.5731 28.2035 36.3541 28.4981 36.2447C29.3257 35.9025 30.1394 35.5467 30.8969 35.0541C32.7906 33.8224 34.2355 32.1939 35.1614 30.1549C36.0171 28.2664 36.3678 26.2958 36.1153 24.2567C35.8207 21.8619 34.8668 19.7544 33.2115 17.9343C32.2295 16.8669 31.0792 16.0184 29.8027 15.3479C29.4099 15.1426 28.975 14.9921 28.5542 14.8142C28.2316 14.6773 28.0492 14.4584 28.0492 14.1025C28.0492 13.7331 28.0352 13.3499 28.0492 12.9804C28.0632 12.5835 28.3578 12.3783 28.7366 12.5014C30.1955 12.953 31.5422 13.6099 32.7766 14.4994C34.4319 15.6626 35.7365 17.1269 36.7325 18.8649C37.3497 19.946 37.8126 21.0681 38.1072 22.2861C38.3457 23.3535 38.5 24.4209 38.5 26.0357Z" fill="#FF9D86" stroke="#FF9D86" stroke-width="0.965526"/>
<path d="M37 4C37 1.79086 38.7909 0 41 0H48C50.2091 0 52 1.79086 52 4V9C52 11.2091 50.2091 13 48 13H41C38.7909 13 37 11.2091 37 9V4Z" fill="#FF9D86"/>
<path d="M47.708 4.028H43.964V5.684C44.124 5.508 44.348 5.364 44.636 5.252C44.924 5.14 45.236 5.084 45.572 5.084C46.172 5.084 46.668 5.22 47.06 5.492C47.46 5.764 47.752 6.116 47.936 6.548C48.12 6.98 48.212 7.448 48.212 7.952C48.212 8.888 47.948 9.632 47.42 10.184C46.892 10.728 46.148 11 45.188 11C44.548 11 43.992 10.892 43.52 10.676C43.048 10.452 42.684 10.144 42.428 9.752C42.172 9.36 42.032 8.908 42.008 8.396H44.012C44.06 8.644 44.176 8.852 44.36 9.02C44.544 9.18 44.796 9.26 45.116 9.26C45.492 9.26 45.772 9.14 45.956 8.9C46.14 8.66 46.232 8.34 46.232 7.94C46.232 7.548 46.136 7.248 45.944 7.04C45.752 6.832 45.472 6.728 45.104 6.728C44.832 6.728 44.608 6.796 44.432 6.932C44.256 7.06 44.14 7.232 44.084 7.448H42.104V2.228H47.708V4.028Z" fill="white"/>
</svg>
