<svg width="53" height="50" viewBox="0 0 53 50" fill="none" xmlns="http://www.w3.org/2000/svg">
<path d="M0 19.3714C0 13.2909 0 10.2506 1.18336 7.9281C2.22427 5.8852 3.8852 4.22427 5.9281 3.18336C8.25057 2 11.2909 2 17.3714 2H30.6286C36.7091 2 39.7494 2 42.0719 3.18336C44.1148 4.22427 45.7757 5.8852 46.8166 7.9281C48 10.2506 48 13.2909 48 19.3714V32.6286C48 38.7091 48 41.7494 46.8166 44.0719C45.7757 46.1148 44.1148 47.7757 42.0719 48.8166C39.7494 50 36.7091 50 30.6286 50H17.3714C11.2909 50 8.25057 50 5.9281 48.8166C3.8852 47.7757 2.22427 46.1148 1.18336 44.0719C0 41.7494 0 38.7091 0 32.6286V19.3714Z" fill="#FFF2EE"/>
<path d="M22.4067 33.1142C22.4067 32.8893 22.3932 32.6512 22.4067 32.4263C22.4203 32.2015 22.3254 32.1221 22.1084 32.0824C21.3084 31.9369 20.5625 31.6855 19.9117 31.1961C19.1116 30.5744 18.6506 29.7674 18.4607 28.8018C18.3522 28.2726 18.5692 28.061 19.1116 28.061C19.437 28.061 19.7625 28.061 20.0879 28.061C20.5219 28.061 20.6846 28.1933 20.7931 28.6166C20.9829 29.397 21.4168 30.0055 22.2305 30.2304C23.3153 30.5347 24.4001 30.614 25.3764 29.8997C26.2036 29.3044 26.2714 28.4446 25.9731 27.6112C25.8782 27.3334 25.6069 27.135 25.3357 26.9895C24.7255 26.6588 24.034 26.5397 23.356 26.4471C22.4203 26.3148 21.4846 26.1429 20.6168 25.746C19.3964 25.2036 18.8133 24.2644 18.7455 22.9945C18.6234 20.8515 20.1151 19.5419 22.0406 19.1583C22.3118 19.1054 22.4339 19.026 22.4067 18.735C22.3796 18.3249 22.3932 17.9148 22.4067 17.518C22.4067 17.055 22.6237 16.8433 23.0847 16.8301C23.3831 16.8301 23.6678 16.8169 23.9662 16.8301C24.4408 16.8433 24.6577 17.055 24.6577 17.5312C24.6577 17.9545 24.6713 18.391 24.6577 18.8144C24.6442 19.0392 24.7391 19.1451 24.9561 19.198C25.729 19.3699 26.4206 19.7007 26.9901 20.243C27.5189 20.7589 27.8308 21.4071 27.9935 22.1214C28.0613 22.3992 27.8173 22.6903 27.4918 22.7035C27.085 22.7299 26.6782 22.7167 26.2714 22.7035C26.0409 22.6903 25.8375 22.5712 25.7561 22.3331C25.3629 21.0499 24.3865 20.7854 23.1932 20.7986C22.7051 20.8118 22.2033 20.878 21.7694 21.1425C21.2134 21.4865 21.0236 21.9892 21.0372 22.6109C21.0507 23.2062 21.3084 23.6427 21.8643 23.9073C22.6373 24.2777 23.4916 24.3306 24.3323 24.4761C25.3493 24.6481 26.3663 24.8597 27.2342 25.4814C28.0342 26.0503 28.3461 26.8572 28.441 27.7832C28.6309 29.8336 27.3698 31.3548 25.4985 31.9104C24.6577 32.1618 24.6577 32.1353 24.6577 32.9819C24.6577 33.2465 24.6577 33.5111 24.6577 33.7756C24.6442 34.1592 24.4272 34.3841 24.0204 34.3841C23.7085 34.3841 23.3831 34.3841 23.0712 34.3841C22.6237 34.3841 22.4203 34.1725 22.4067 33.7227C22.4067 33.5375 22.4067 33.3259 22.4067 33.1142Z" fill="#FF9D86" stroke="#FF9D86" stroke-width="0.933326"/>
<path d="M10 25.7204C10 23.1276 10.7323 20.6142 12.2781 18.3257C13.5257 16.487 15.1393 15.0716 17.1056 14.0265C17.8514 13.6297 18.6243 13.299 19.4379 13.0608C19.8583 12.9418 20.1295 13.127 20.143 13.5503C20.1566 13.881 20.143 14.2117 20.143 14.5424C20.143 14.9128 19.9668 15.1774 19.6142 15.3097C18.448 15.7462 17.3768 16.3415 16.4004 17.1087C15.2071 18.0612 14.2715 19.1988 13.5663 20.5084C12.4815 22.5059 12.0883 24.6357 12.3324 26.8713C12.4951 28.2867 12.9426 29.6492 13.6477 30.9059C14.3664 32.1758 15.302 33.2738 16.4682 34.1865C17.3632 34.9009 18.3667 35.4565 19.4379 35.8665C20.0074 36.0782 20.1295 36.2369 20.1295 36.819C20.1295 37.11 20.143 37.4143 20.1295 37.7053C20.1159 38.0757 19.8176 38.2873 19.4515 38.1815C17.8107 37.6788 16.3191 36.8851 14.9766 35.8268C13.6477 34.7686 12.5629 33.5119 11.7221 32.0568C10.9085 30.6281 10.3661 29.1068 10.1492 27.493C10.0814 26.9638 10.0407 26.4083 10 25.7204Z" fill="#FF9D86" stroke="#FF9D86" stroke-width="0.933326"/>
<path d="M37.0674 26.1173C37.0403 28.6306 36.1046 31.3689 34.1926 33.75C32.6739 35.6285 30.7754 37.0307 28.4838 37.8905C28.199 37.9963 27.9142 38.0889 27.6295 38.1815C27.2905 38.3006 26.9786 38.1022 26.965 37.745C26.9515 37.3614 26.965 36.9777 26.965 36.5941C26.965 36.3031 27.1142 36.0914 27.3989 35.9856C28.199 35.6549 28.9855 35.311 29.7177 34.8347C31.5484 33.6442 32.9451 32.07 33.84 30.099C34.6672 28.2735 35.0062 26.3686 34.7621 24.3976C34.4774 22.0826 33.5553 20.0454 31.9552 18.2861C31.006 17.2543 29.894 16.4341 28.66 15.7859C28.2804 15.5875 27.86 15.442 27.4532 15.27C27.1413 15.1377 26.965 14.9261 26.965 14.5821C26.965 14.225 26.9515 13.8546 26.965 13.4974C26.9786 13.1138 27.2633 12.9154 27.6295 13.0344C29.0397 13.4709 30.3415 14.1059 31.5348 14.9658C33.1349 16.0902 34.396 17.5056 35.3588 19.1856C35.9554 20.2306 36.4029 21.3154 36.6877 22.4927C36.9182 23.5245 37.0674 24.5563 37.0674 26.1173Z" fill="#FF9D86" stroke="#FF9D86" stroke-width="0.933326"/>
<path d="M34 4C34 1.79086 35.7909 0 38 0H49C51.2091 0 53 1.79086 53 4V9C53 11.2091 51.2091 13 49 13H38C35.7909 13 34 11.2091 34 9V4Z" fill="#FF9D86"/>
<path d="M37.324 4.148V2.24H40.648V11H38.512V4.148H37.324ZM48.2197 4.028H44.4757V5.684C44.6357 5.508 44.8597 5.364 45.1477 5.252C45.4357 5.14 45.7477 5.084 46.0837 5.084C46.6837 5.084 47.1797 5.22 47.5717 5.492C47.9717 5.764 48.2637 6.116 48.4477 6.548C48.6317 6.98 48.7237 7.448 48.7237 7.952C48.7237 8.888 48.4597 9.632 47.9317 10.184C47.4037 10.728 46.6597 11 45.6997 11C45.0597 11 44.5037 10.892 44.0317 10.676C43.5597 10.452 43.1957 10.144 42.9397 9.752C42.6837 9.36 42.5437 8.908 42.5197 8.396H44.5237C44.5717 8.644 44.6877 8.852 44.8717 9.02C45.0557 9.18 45.3077 9.26 45.6277 9.26C46.0037 9.26 46.2837 9.14 46.4677 8.9C46.6517 8.66 46.7437 8.34 46.7437 7.94C46.7437 7.548 46.6477 7.248 46.4557 7.04C46.2637 6.832 45.9837 6.728 45.6157 6.728C45.3437 6.728 45.1197 6.796 44.9437 6.932C44.7677 7.06 44.6517 7.232 44.5957 7.448H42.6157V2.228H48.2197V4.028Z" fill="white"/>
</svg>
