<svg width="52" height="50" viewBox="0 0 52 50" fill="none" xmlns="http://www.w3.org/2000/svg">
<path d="M0 19.3714C0 13.2909 0 10.2506 1.18336 7.9281C2.22427 5.8852 3.8852 4.22427 5.9281 3.18336C8.25057 2 11.2909 2 17.3714 2H30.6286C36.7091 2 39.7494 2 42.0719 3.18336C44.1148 4.22427 45.7757 5.8852 46.8166 7.9281C48 10.2506 48 13.2909 48 19.3714V32.6286C48 38.7091 48 41.7494 46.8166 44.0719C45.7757 46.1148 44.1148 47.7757 42.0719 48.8166C39.7494 50 36.7091 50 30.6286 50H17.3714C11.2909 50 8.25057 50 5.9281 48.8166C3.8852 47.7757 2.22427 46.1148 1.18336 44.0719C0 41.7494 0 38.7091 0 32.6286V19.3714Z" fill="#FFEFF5"/>
<path fill-rule="evenodd" clip-rule="evenodd" d="M33.5608 19.9322V17.4661V15H23.9078H14.2547V17.4637V19.9273L17.7425 19.965L21.2303 20.0027L21.2702 21.5083L21.31 23.0139L20.7065 23.089C20.3745 23.1304 19.3596 23.2341 18.451 23.3194C17.5425 23.4048 16.1387 23.6238 15.3315 23.8062C13.072 24.3168 12 24.9521 12 25.7804C12 26.6087 13.072 27.244 15.3314 27.7545C16.1387 27.9369 17.5424 28.1574 18.451 28.2445C19.3596 28.3315 20.3724 28.4349 20.7018 28.4742L21.3007 28.5457V33.1168V37.6882H23.9782H26.6557V33.1195V28.5507L27.6069 28.4668C33.6269 27.9355 36.2383 27.1263 36.2383 25.7924C36.2383 24.4429 33.6214 23.6247 27.6069 23.094L26.6557 23.01V21.4711V19.9322H30.1083H33.5608ZM14.5323 24.8037C15.7464 24.4202 17.4342 24.0805 19.046 23.8952C19.6273 23.8284 20.3724 23.7654 20.7018 23.7554L21.3007 23.7371V25.2872V26.8373H23.9782H26.6557V25.2679V23.6984L28.0297 23.7979C31.3171 24.0361 34.4249 24.7813 35.2882 25.5384C35.5185 25.7404 35.5196 25.7738 35.3043 26.0116C34.77 26.6021 32.0979 27.2479 28.9809 27.5401C24.8767 27.9248 18.4075 27.6479 15.489 26.9627C12.3337 26.2219 12.0523 25.5872 14.5323 24.8037Z" fill="#FF94BC"/>
<path d="M33 4C33 1.79086 34.7909 0 37 0H48C50.2091 0 52 1.79086 52 4V9C52 11.2091 50.2091 13 48 13H37C34.7909 13 33 11.2091 33 9V4Z" fill="#FF94BC"/>
<path d="M36.324 4.148V2.24H39.648V11H37.512V4.148H36.324ZM47.2197 4.028H43.4757V5.684C43.6357 5.508 43.8597 5.364 44.1477 5.252C44.4357 5.14 44.7477 5.084 45.0837 5.084C45.6837 5.084 46.1797 5.22 46.5717 5.492C46.9717 5.764 47.2637 6.116 47.4477 6.548C47.6317 6.98 47.7237 7.448 47.7237 7.952C47.7237 8.888 47.4597 9.632 46.9317 10.184C46.4037 10.728 45.6597 11 44.6997 11C44.0597 11 43.5037 10.892 43.0317 10.676C42.5597 10.452 42.1957 10.144 41.9397 9.752C41.6837 9.36 41.5437 8.908 41.5197 8.396H43.5237C43.5717 8.644 43.6877 8.852 43.8717 9.02C44.0557 9.18 44.3077 9.26 44.6277 9.26C45.0037 9.26 45.2837 9.14 45.4677 8.9C45.6517 8.66 45.7437 8.34 45.7437 7.94C45.7437 7.548 45.6477 7.248 45.4557 7.04C45.2637 6.832 44.9837 6.728 44.6157 6.728C44.3437 6.728 44.1197 6.796 43.9437 6.932C43.7677 7.06 43.6517 7.232 43.5957 7.448H41.6157V2.228H47.2197V4.028Z" fill="white"/>
</svg>
