<svg width="52" height="50" viewBox="0 0 52 50" fill="none" xmlns="http://www.w3.org/2000/svg">
<path d="M0 19.3714C0 13.2909 0 10.2506 1.18336 7.9281C2.22427 5.8852 3.8852 4.22427 5.9281 3.18336C8.25057 2 11.2909 2 17.3714 2H30.6286C36.7091 2 39.7494 2 42.0719 3.18336C44.1148 4.22427 45.7757 5.8852 46.8166 7.9281C48 10.2506 48 13.2909 48 19.3714V32.6286C48 38.7091 48 41.7494 46.8166 44.0719C45.7757 46.1148 44.1148 47.7757 42.0719 48.8166C39.7494 50 36.7091 50 30.6286 50H17.3714C11.2909 50 8.25057 50 5.9281 48.8166C3.8852 47.7757 2.22427 46.1148 1.18336 44.0719C0 41.7494 0 38.7091 0 32.6286V19.3714Z" fill="#FFEFF5"/>
<path fill-rule="evenodd" clip-rule="evenodd" d="M33.5608 19.9322V17.4661V15H23.9078H14.2547V17.4637V19.9273L17.7425 19.965L21.2303 20.0027L21.2702 21.5083L21.31 23.0139L20.7065 23.089C20.3745 23.1304 19.3596 23.2341 18.451 23.3194C17.5425 23.4048 16.1387 23.6238 15.3315 23.8062C13.072 24.3168 12 24.9521 12 25.7804C12 26.6087 13.072 27.244 15.3314 27.7545C16.1387 27.9369 17.5424 28.1574 18.451 28.2445C19.3596 28.3315 20.3724 28.4349 20.7018 28.4742L21.3007 28.5457V33.1168V37.6882H23.9782H26.6557V33.1195V28.5507L27.6069 28.4668C33.6269 27.9355 36.2383 27.1263 36.2383 25.7924C36.2383 24.4429 33.6214 23.6247 27.6069 23.094L26.6557 23.01V21.4711V19.9322H30.1083H33.5608ZM14.5323 24.8037C15.7464 24.4202 17.4342 24.0805 19.046 23.8952C19.6273 23.8284 20.3724 23.7654 20.7018 23.7554L21.3007 23.7371V25.2872V26.8373H23.9782H26.6557V25.2679V23.6984L28.0297 23.7979C31.3171 24.0361 34.4249 24.7813 35.2882 25.5384C35.5185 25.7404 35.5196 25.7738 35.3043 26.0116C34.77 26.6021 32.0979 27.2479 28.9809 27.5401C24.8767 27.9248 18.4075 27.6479 15.489 26.9627C12.3337 26.2219 12.0523 25.5872 14.5323 24.8037Z" fill="#FF94BC"/>
<path d="M37 4C37 1.79086 38.7909 0 41 0H48C50.2091 0 52 1.79086 52 4V9C52 11.2091 50.2091 13 48 13H41C38.7909 13 37 11.2091 37 9V4Z" fill="#FF94BC"/>
<path d="M47.708 4.028H43.964V5.684C44.124 5.508 44.348 5.364 44.636 5.252C44.924 5.14 45.236 5.084 45.572 5.084C46.172 5.084 46.668 5.22 47.06 5.492C47.46 5.764 47.752 6.116 47.936 6.548C48.12 6.98 48.212 7.448 48.212 7.952C48.212 8.888 47.948 9.632 47.42 10.184C46.892 10.728 46.148 11 45.188 11C44.548 11 43.992 10.892 43.52 10.676C43.048 10.452 42.684 10.144 42.428 9.752C42.172 9.36 42.032 8.908 42.008 8.396H44.012C44.06 8.644 44.176 8.852 44.36 9.02C44.544 9.18 44.796 9.26 45.116 9.26C45.492 9.26 45.772 9.14 45.956 8.9C46.14 8.66 46.232 8.34 46.232 7.94C46.232 7.548 46.136 7.248 45.944 7.04C45.752 6.832 45.472 6.728 45.104 6.728C44.832 6.728 44.608 6.796 44.432 6.932C44.256 7.06 44.14 7.232 44.084 7.448H42.104V2.228H47.708V4.028Z" fill="white"/>
</svg>
