<svg width="52" height="50" viewBox="0 0 52 50" fill="none" xmlns="http://www.w3.org/2000/svg">
<path d="M0 19.3714C0 13.2909 0 10.2506 1.18336 7.9281C2.22427 5.8852 3.8852 4.22427 5.9281 3.18336C8.25057 2 11.2909 2 17.3714 2H30.6286C36.7091 2 39.7494 2 42.0719 3.18336C44.1148 4.22427 45.7757 5.8852 46.8166 7.9281C48 10.2506 48 13.2909 48 19.3714V32.6286C48 38.7091 48 41.7494 46.8166 44.0719C45.7757 46.1148 44.1148 47.7757 42.0719 48.8166C39.7494 50 36.7091 50 30.6286 50H17.3714C11.2909 50 8.25057 50 5.9281 48.8166C3.8852 47.7757 2.22427 46.1148 1.18336 44.0719C0 41.7494 0 38.7091 0 32.6286V19.3714Z" fill="#FFEFF5"/>
<path fill-rule="evenodd" clip-rule="evenodd" d="M33.5608 19.9322V17.4661V15H23.9078H14.2547V17.4637V19.9273L17.7425 19.965L21.2303 20.0027L21.2702 21.5083L21.31 23.0139L20.7065 23.089C20.3745 23.1304 19.3596 23.2341 18.451 23.3194C17.5425 23.4048 16.1387 23.6238 15.3315 23.8062C13.072 24.3168 12 24.9521 12 25.7804C12 26.6087 13.072 27.244 15.3314 27.7545C16.1387 27.9369 17.5424 28.1574 18.451 28.2445C19.3596 28.3315 20.3724 28.4349 20.7018 28.4742L21.3007 28.5457V33.1168V37.6882H23.9782H26.6557V33.1195V28.5507L27.6069 28.4668C33.6269 27.9355 36.2383 27.1263 36.2383 25.7924C36.2383 24.4429 33.6214 23.6247 27.6069 23.094L26.6557 23.01V21.4711V19.9322H30.1083H33.5608ZM14.5323 24.8037C15.7464 24.4202 17.4342 24.0805 19.046 23.8952C19.6273 23.8284 20.3724 23.7654 20.7018 23.7554L21.3007 23.7371V25.2872V26.8373H23.9782H26.6557V25.2679V23.6984L28.0297 23.7979C31.3171 24.0361 34.4249 24.7813 35.2882 25.5384C35.5185 25.7404 35.5196 25.7738 35.3043 26.0116C34.77 26.6021 32.0979 27.2479 28.9809 27.5401C24.8767 27.9248 18.4075 27.6479 15.489 26.9627C12.3337 26.2219 12.0523 25.5872 14.5323 24.8037Z" fill="#FF94BC"/>
<path d="M33 4C33 1.79086 34.7909 0 37 0H48C50.2091 0 52 1.79086 52 4V9C52 11.2091 50.2091 13 48 13H37C34.7909 13 33 11.2091 33 9V4Z" fill="#FF94BC"/>
<path d="M35.612 4.712C35.644 3.856 35.924 3.196 36.452 2.732C36.98 2.268 37.696 2.036 38.6 2.036C39.2 2.036 39.712 2.14 40.136 2.348C40.568 2.556 40.892 2.84 41.108 3.2C41.332 3.56 41.444 3.964 41.444 4.412C41.444 4.94 41.312 5.372 41.048 5.708C40.784 6.036 40.476 6.26 40.124 6.38V6.428C40.58 6.58 40.94 6.832 41.204 7.184C41.468 7.536 41.6 7.988 41.6 8.54C41.6 9.036 41.484 9.476 41.252 9.86C41.028 10.236 40.696 10.532 40.256 10.748C39.824 10.964 39.308 11.072 38.708 11.072C37.748 11.072 36.98 10.836 36.404 10.364C35.836 9.892 35.536 9.18 35.504 8.228H37.496C37.504 8.58 37.604 8.86 37.796 9.068C37.988 9.268 38.268 9.368 38.636 9.368C38.948 9.368 39.188 9.28 39.356 9.104C39.532 8.92 39.62 8.68 39.62 8.384C39.62 8 39.496 7.724 39.248 7.556C39.008 7.38 38.62 7.292 38.084 7.292H37.7V5.624H38.084C38.492 5.624 38.82 5.556 39.068 5.42C39.324 5.276 39.452 5.024 39.452 4.664C39.452 4.376 39.372 4.152 39.212 3.992C39.052 3.832 38.832 3.752 38.552 3.752C38.248 3.752 38.02 3.844 37.868 4.028C37.724 4.212 37.64 4.44 37.616 4.712H35.612ZM42.8056 6.5C42.8056 5.124 43.0696 4.04 43.5976 3.248C44.1336 2.456 44.9936 2.06 46.1776 2.06C47.3616 2.06 48.2176 2.456 48.7456 3.248C49.2816 4.04 49.5496 5.124 49.5496 6.5C49.5496 7.892 49.2816 8.984 48.7456 9.776C48.2176 10.568 47.3616 10.964 46.1776 10.964C44.9936 10.964 44.1336 10.568 43.5976 9.776C43.0696 8.984 42.8056 7.892 42.8056 6.5ZM47.5336 6.5C47.5336 5.692 47.4456 5.072 47.2696 4.64C47.0936 4.2 46.7296 3.98 46.1776 3.98C45.6256 3.98 45.2616 4.2 45.0856 4.64C44.9096 5.072 44.8216 5.692 44.8216 6.5C44.8216 7.044 44.8536 7.496 44.9176 7.856C44.9816 8.208 45.1096 8.496 45.3016 8.72C45.5016 8.936 45.7936 9.044 46.1776 9.044C46.5616 9.044 46.8496 8.936 47.0416 8.72C47.2416 8.496 47.3736 8.208 47.4376 7.856C47.5016 7.496 47.5336 7.044 47.5336 6.5Z" fill="white"/>
</svg>
