<svg width="52" height="50" viewBox="0 0 52 50" fill="none" xmlns="http://www.w3.org/2000/svg">
<path d="M0 19.3714C0 13.2909 0 10.2506 1.18336 7.9281C2.22427 5.8852 3.8852 4.22427 5.9281 3.18336C8.25057 2 11.2909 2 17.3714 2H30.6286C36.7091 2 39.7494 2 42.0719 3.18336C44.1148 4.22427 45.7757 5.8852 46.8166 7.9281C48 10.2506 48 13.2909 48 19.3714V32.6286C48 38.7091 48 41.7494 46.8166 44.0719C45.7757 46.1148 44.1148 47.7757 42.0719 48.8166C39.7494 50 36.7091 50 30.6286 50H17.3714C11.2909 50 8.25057 50 5.9281 48.8166C3.8852 47.7757 2.22427 46.1148 1.18336 44.0719C0 41.7494 0 38.7091 0 32.6286V19.3714Z" fill="#FFEFF5"/>
<path fill-rule="evenodd" clip-rule="evenodd" d="M33.5608 19.9322V17.4661V15H23.9078H14.2547V17.4637V19.9273L17.7425 19.965L21.2303 20.0027L21.2702 21.5083L21.31 23.0139L20.7065 23.089C20.3745 23.1304 19.3596 23.2341 18.451 23.3194C17.5425 23.4048 16.1387 23.6238 15.3315 23.8062C13.072 24.3168 12 24.9521 12 25.7804C12 26.6087 13.072 27.244 15.3314 27.7545C16.1387 27.9369 17.5424 28.1574 18.451 28.2445C19.3596 28.3315 20.3724 28.4349 20.7018 28.4742L21.3007 28.5457V33.1168V37.6882H23.9782H26.6557V33.1195V28.5507L27.6069 28.4668C33.6269 27.9355 36.2383 27.1263 36.2383 25.7924C36.2383 24.4429 33.6214 23.6247 27.6069 23.094L26.6557 23.01V21.4711V19.9322H30.1083H33.5608ZM14.5323 24.8037C15.7464 24.4202 17.4342 24.0805 19.046 23.8952C19.6273 23.8284 20.3724 23.7654 20.7018 23.7554L21.3007 23.7371V25.2872V26.8373H23.9782H26.6557V25.2679V23.6984L28.0297 23.7979C31.3171 24.0361 34.4249 24.7813 35.2882 25.5384C35.5185 25.7404 35.5196 25.7738 35.3043 26.0116C34.77 26.6021 32.0979 27.2479 28.9809 27.5401C24.8767 27.9248 18.4075 27.6479 15.489 26.9627C12.3337 26.2219 12.0523 25.5872 14.5323 24.8037Z" fill="#FF94BC"/>
<path d="M33 4C33 1.79086 34.7909 0 37 0H48C50.2091 0 52 1.79086 52 4V9C52 11.2091 50.2091 13 48 13H37C34.7909 13 33 11.2091 33 9V4Z" fill="#FF94BC"/>
<path d="M39.872 4.604C39.808 4.308 39.696 4.088 39.536 3.944C39.376 3.792 39.148 3.716 38.852 3.716C38.396 3.716 38.068 3.916 37.868 4.316C37.668 4.708 37.564 5.332 37.556 6.188C37.732 5.908 37.984 5.688 38.312 5.528C38.648 5.368 39.016 5.288 39.416 5.288C40.2 5.288 40.828 5.536 41.3 6.032C41.78 6.528 42.02 7.22 42.02 8.108C42.02 8.692 41.9 9.204 41.66 9.644C41.428 10.084 41.084 10.428 40.628 10.676C40.18 10.924 39.648 11.048 39.032 11.048C37.8 11.048 36.944 10.664 36.464 9.896C35.984 9.12 35.744 8.008 35.744 6.56C35.744 5.04 35.996 3.912 36.5 3.176C37.012 2.432 37.828 2.06 38.948 2.06C39.548 2.06 40.052 2.18 40.46 2.42C40.876 2.652 41.188 2.96 41.396 3.344C41.612 3.728 41.74 4.148 41.78 4.604H39.872ZM38.924 6.908C38.58 6.908 38.292 7.012 38.06 7.22C37.836 7.42 37.724 7.708 37.724 8.084C37.724 8.468 37.828 8.768 38.036 8.984C38.252 9.2 38.556 9.308 38.948 9.308C39.3 9.308 39.576 9.204 39.776 8.996C39.984 8.78 40.088 8.488 40.088 8.12C40.088 7.744 39.988 7.448 39.788 7.232C39.588 7.016 39.3 6.908 38.924 6.908ZM43.1806 6.5C43.1806 5.124 43.4446 4.04 43.9726 3.248C44.5086 2.456 45.3686 2.06 46.5526 2.06C47.7366 2.06 48.5926 2.456 49.1206 3.248C49.6566 4.04 49.9246 5.124 49.9246 6.5C49.9246 7.892 49.6566 8.984 49.1206 9.776C48.5926 10.568 47.7366 10.964 46.5526 10.964C45.3686 10.964 44.5086 10.568 43.9726 9.776C43.4446 8.984 43.1806 7.892 43.1806 6.5ZM47.9086 6.5C47.9086 5.692 47.8206 5.072 47.6446 4.64C47.4686 4.2 47.1046 3.98 46.5526 3.98C46.0006 3.98 45.6366 4.2 45.4606 4.64C45.2846 5.072 45.1966 5.692 45.1966 6.5C45.1966 7.044 45.2286 7.496 45.2926 7.856C45.3566 8.208 45.4846 8.496 45.6766 8.72C45.8766 8.936 46.1686 9.044 46.5526 9.044C46.9366 9.044 47.2246 8.936 47.4166 8.72C47.6166 8.496 47.7486 8.208 47.8126 7.856C47.8766 7.496 47.9086 7.044 47.9086 6.5Z" fill="white"/>
</svg>
