<svg width="52" height="50" viewBox="0 0 52 50" fill="none" xmlns="http://www.w3.org/2000/svg">
<path d="M0 19.3714C0 13.2909 0 10.2506 1.18336 7.9281C2.22427 5.8852 3.8852 4.22427 5.9281 3.18336C8.25057 2 11.2909 2 17.3714 2H30.6286C36.7091 2 39.7494 2 42.0719 3.18336C44.1148 4.22427 45.7757 5.8852 46.8166 7.9281C48 10.2506 48 13.2909 48 19.3714V32.6286C48 38.7091 48 41.7494 46.8166 44.0719C45.7757 46.1148 44.1148 47.7757 42.0719 48.8166C39.7494 50 36.7091 50 30.6286 50H17.3714C11.2909 50 8.25057 50 5.9281 48.8166C3.8852 47.7757 2.22427 46.1148 1.18336 44.0719C0 41.7494 0 38.7091 0 32.6286V19.3714Z" fill="#EAEAFF"/>
<path fill-rule="evenodd" clip-rule="evenodd" d="M33.5072 26.5719C33.5741 26.5184 31.6022 23.0843 29.1256 18.9406C26.6491 14.7972 24.4694 11.2372 24.282 11.0297C24.0223 10.7423 22.8424 12.491 19.3107 18.3976C16.7636 22.6572 14.6797 26.2498 14.6797 26.3806C14.6797 26.5114 16.7912 27.8853 19.3721 29.4332C22.2397 31.1534 25.8559 31.1759 28.7253 29.4588C31.2889 27.9248 33.4406 26.6257 33.5072 26.5719ZM28.3889 31.8158C25.7043 33.4014 22.3522 33.4007 19.6769 31.7994C17.2895 30.3701 15.2594 29.2008 15.1654 29.2008C15.0264 29.2008 19.4266 35.5543 23.2317 40.8475C23.6374 41.4118 24.4782 41.4082 24.879 40.8405L27.022 37.8058C28.6508 35.4987 30.6568 32.6751 31.4799 31.5308C32.303 30.3865 32.9278 29.4016 32.8681 29.342C32.8085 29.2824 30.7931 30.3956 28.3889 31.8158Z" fill="#AFA0FE"/>
<path d="M33 4C33 1.79086 34.7909 0 37 0H48C50.2091 0 52 1.79086 52 4V9C52 11.2091 50.2091 13 48 13H37C34.7909 13 33 11.2091 33 9V4Z" fill="#AFA0FE"/>
<path d="M34.588 9.44V7.784L38.38 2.36H40.672V7.664H41.656V9.44H40.672V11H38.62V9.44H34.588ZM38.764 4.616L36.748 7.664H38.764V4.616ZM48.8291 4.028H45.0851V5.684C45.2451 5.508 45.4691 5.364 45.7571 5.252C46.0451 5.14 46.3571 5.084 46.6931 5.084C47.2931 5.084 47.7891 5.22 48.1811 5.492C48.5811 5.764 48.8731 6.116 49.0571 6.548C49.2411 6.98 49.3331 7.448 49.3331 7.952C49.3331 8.888 49.0691 9.632 48.5411 10.184C48.0131 10.728 47.2691 11 46.3091 11C45.6691 11 45.1131 10.892 44.6411 10.676C44.1691 10.452 43.8051 10.144 43.5491 9.752C43.2931 9.36 43.1531 8.908 43.1291 8.396H45.1331C45.1811 8.644 45.2971 8.852 45.4811 9.02C45.6651 9.18 45.9171 9.26 46.2371 9.26C46.6131 9.26 46.8931 9.14 47.0771 8.9C47.2611 8.66 47.3531 8.34 47.3531 7.94C47.3531 7.548 47.2571 7.248 47.0651 7.04C46.8731 6.832 46.5931 6.728 46.2251 6.728C45.9531 6.728 45.7291 6.796 45.5531 6.932C45.3771 7.06 45.2611 7.232 45.2051 7.448H43.2251V2.228H48.8291V4.028Z" fill="white"/>
</svg>
