<svg width="52" height="50" viewBox="0 0 52 50" fill="none" xmlns="http://www.w3.org/2000/svg">
<path d="M0 19.3714C0 13.2909 0 10.2506 1.18336 7.9281C2.22427 5.8852 3.8852 4.22427 5.9281 3.18336C8.25057 2 11.2909 2 17.3714 2H30.6286C36.7091 2 39.7494 2 42.0719 3.18336C44.1148 4.22427 45.7757 5.8852 46.8166 7.9281C48 10.2506 48 13.2909 48 19.3714V32.6286C48 38.7091 48 41.7494 46.8166 44.0719C45.7757 46.1148 44.1148 47.7757 42.0719 48.8166C39.7494 50 36.7091 50 30.6286 50H17.3714C11.2909 50 8.25057 50 5.9281 48.8166C3.8852 47.7757 2.22427 46.1148 1.18336 44.0719C0 41.7494 0 38.7091 0 32.6286V19.3714Z" fill="#EAEAFF"/>
<path fill-rule="evenodd" clip-rule="evenodd" d="M33.5072 26.5719C33.5741 26.5184 31.6022 23.0843 29.1256 18.9406C26.6491 14.7972 24.4694 11.2372 24.282 11.0297C24.0223 10.7423 22.8424 12.491 19.3107 18.3976C16.7636 22.6572 14.6797 26.2498 14.6797 26.3806C14.6797 26.5114 16.7912 27.8853 19.3721 29.4332C22.2397 31.1534 25.8559 31.1759 28.7253 29.4588C31.2889 27.9248 33.4406 26.6257 33.5072 26.5719ZM28.3889 31.8158C25.7043 33.4014 22.3522 33.4007 19.6769 31.7994C17.2895 30.3701 15.2594 29.2008 15.1654 29.2008C15.0264 29.2008 19.4266 35.5543 23.2317 40.8475C23.6374 41.4118 24.4782 41.4082 24.879 40.8405L27.022 37.8058C28.6508 35.4987 30.6568 32.6751 31.4799 31.5308C32.303 30.3865 32.9278 29.4016 32.8681 29.342C32.8085 29.2824 30.7931 30.3956 28.3889 31.8158Z" fill="#AFA0FE"/>
<path d="M33 4C33 1.79086 34.7909 0 37 0H48C50.2091 0 52 1.79086 52 4V9C52 11.2091 50.2091 13 48 13H37C34.7909 13 33 11.2091 33 9V4Z" fill="#AFA0FE"/>
<path d="M35.612 4.712C35.644 3.856 35.924 3.196 36.452 2.732C36.98 2.268 37.696 2.036 38.6 2.036C39.2 2.036 39.712 2.14 40.136 2.348C40.568 2.556 40.892 2.84 41.108 3.2C41.332 3.56 41.444 3.964 41.444 4.412C41.444 4.94 41.312 5.372 41.048 5.708C40.784 6.036 40.476 6.26 40.124 6.38V6.428C40.58 6.58 40.94 6.832 41.204 7.184C41.468 7.536 41.6 7.988 41.6 8.54C41.6 9.036 41.484 9.476 41.252 9.86C41.028 10.236 40.696 10.532 40.256 10.748C39.824 10.964 39.308 11.072 38.708 11.072C37.748 11.072 36.98 10.836 36.404 10.364C35.836 9.892 35.536 9.18 35.504 8.228H37.496C37.504 8.58 37.604 8.86 37.796 9.068C37.988 9.268 38.268 9.368 38.636 9.368C38.948 9.368 39.188 9.28 39.356 9.104C39.532 8.92 39.62 8.68 39.62 8.384C39.62 8 39.496 7.724 39.248 7.556C39.008 7.38 38.62 7.292 38.084 7.292H37.7V5.624H38.084C38.492 5.624 38.82 5.556 39.068 5.42C39.324 5.276 39.452 5.024 39.452 4.664C39.452 4.376 39.372 4.152 39.212 3.992C39.052 3.832 38.832 3.752 38.552 3.752C38.248 3.752 38.02 3.844 37.868 4.028C37.724 4.212 37.64 4.44 37.616 4.712H35.612ZM42.8056 6.5C42.8056 5.124 43.0696 4.04 43.5976 3.248C44.1336 2.456 44.9936 2.06 46.1776 2.06C47.3616 2.06 48.2176 2.456 48.7456 3.248C49.2816 4.04 49.5496 5.124 49.5496 6.5C49.5496 7.892 49.2816 8.984 48.7456 9.776C48.2176 10.568 47.3616 10.964 46.1776 10.964C44.9936 10.964 44.1336 10.568 43.5976 9.776C43.0696 8.984 42.8056 7.892 42.8056 6.5ZM47.5336 6.5C47.5336 5.692 47.4456 5.072 47.2696 4.64C47.0936 4.2 46.7296 3.98 46.1776 3.98C45.6256 3.98 45.2616 4.2 45.0856 4.64C44.9096 5.072 44.8216 5.692 44.8216 6.5C44.8216 7.044 44.8536 7.496 44.9176 7.856C44.9816 8.208 45.1096 8.496 45.3016 8.72C45.5016 8.936 45.7936 9.044 46.1776 9.044C46.5616 9.044 46.8496 8.936 47.0416 8.72C47.2416 8.496 47.3736 8.208 47.4376 7.856C47.5016 7.496 47.5336 7.044 47.5336 6.5Z" fill="white"/>
</svg>
