<svg width="52" height="50" viewBox="0 0 52 50" fill="none" xmlns="http://www.w3.org/2000/svg">
<path d="M0 19.3714C0 13.2909 0 10.2506 1.18336 7.9281C2.22427 5.8852 3.8852 4.22427 5.9281 3.18336C8.25057 2 11.2909 2 17.3714 2H30.6286C36.7091 2 39.7494 2 42.0719 3.18336C44.1148 4.22427 45.7757 5.8852 46.8166 7.9281C48 10.2506 48 13.2909 48 19.3714V32.6286C48 38.7091 48 41.7494 46.8166 44.0719C45.7757 46.1148 44.1148 47.7757 42.0719 48.8166C39.7494 50 36.7091 50 30.6286 50H17.3714C11.2909 50 8.25057 50 5.9281 48.8166C3.8852 47.7757 2.22427 46.1148 1.18336 44.0719C0 41.7494 0 38.7091 0 32.6286V19.3714Z" fill="#EAEAFF"/>
<path fill-rule="evenodd" clip-rule="evenodd" d="M33.5072 26.5719C33.5741 26.5184 31.6022 23.0843 29.1256 18.9406C26.6491 14.7972 24.4694 11.2372 24.282 11.0297C24.0223 10.7423 22.8424 12.491 19.3107 18.3976C16.7636 22.6572 14.6797 26.2498 14.6797 26.3806C14.6797 26.5114 16.7912 27.8853 19.3721 29.4332C22.2397 31.1534 25.8559 31.1759 28.7253 29.4588C31.2889 27.9248 33.4406 26.6257 33.5072 26.5719ZM28.3889 31.8158C25.7043 33.4014 22.3522 33.4007 19.6769 31.7994C17.2895 30.3701 15.2594 29.2008 15.1654 29.2008C15.0264 29.2008 19.4266 35.5543 23.2317 40.8475C23.6374 41.4118 24.4782 41.4082 24.879 40.8405L27.022 37.8058C28.6508 35.4987 30.6568 32.6751 31.4799 31.5308C32.303 30.3865 32.9278 29.4016 32.8681 29.342C32.8085 29.2824 30.7931 30.3956 28.3889 31.8158Z" fill="#AFA0FE"/>
<path d="M33 4C33 1.79086 34.7909 0 37 0H48C50.2091 0 52 1.79086 52 4V9C52 11.2091 50.2091 13 48 13H37C34.7909 13 33 11.2091 33 9V4Z" fill="#AFA0FE"/>
<path d="M36.324 4.148V2.24H39.648V11H37.512V4.148H36.324ZM47.2197 4.028H43.4757V5.684C43.6357 5.508 43.8597 5.364 44.1477 5.252C44.4357 5.14 44.7477 5.084 45.0837 5.084C45.6837 5.084 46.1797 5.22 46.5717 5.492C46.9717 5.764 47.2637 6.116 47.4477 6.548C47.6317 6.98 47.7237 7.448 47.7237 7.952C47.7237 8.888 47.4597 9.632 46.9317 10.184C46.4037 10.728 45.6597 11 44.6997 11C44.0597 11 43.5037 10.892 43.0317 10.676C42.5597 10.452 42.1957 10.144 41.9397 9.752C41.6837 9.36 41.5437 8.908 41.5197 8.396H43.5237C43.5717 8.644 43.6877 8.852 43.8717 9.02C44.0557 9.18 44.3077 9.26 44.6277 9.26C45.0037 9.26 45.2837 9.14 45.4677 8.9C45.6517 8.66 45.7437 8.34 45.7437 7.94C45.7437 7.548 45.6477 7.248 45.4557 7.04C45.2637 6.832 44.9837 6.728 44.6157 6.728C44.3437 6.728 44.1197 6.796 43.9437 6.932C43.7677 7.06 43.6517 7.232 43.5957 7.448H41.6157V2.228H47.2197V4.028Z" fill="white"/>
</svg>
