<svg width="53" height="50" viewBox="0 0 53 50" fill="none" xmlns="http://www.w3.org/2000/svg">
<path d="M0 19.3714C0 13.2909 0 10.2506 1.18336 7.9281C2.22427 5.8852 3.8852 4.22427 5.9281 3.18336C8.25057 2 11.2909 2 17.3714 2H30.6286C36.7091 2 39.7494 2 42.0719 3.18336C44.1148 4.22427 45.7757 5.8852 46.8166 7.9281C48 10.2506 48 13.2909 48 19.3714V32.6286C48 38.7091 48 41.7494 46.8166 44.0719C45.7757 46.1148 44.1148 47.7757 42.0719 48.8166C39.7494 50 36.7091 50 30.6286 50H17.3714C11.2909 50 8.25057 50 5.9281 48.8166C3.8852 47.7757 2.22427 46.1148 1.18336 44.0719C0 41.7494 0 38.7091 0 32.6286V19.3714Z" fill="#EAEAFF"/>
<path fill-rule="evenodd" clip-rule="evenodd" d="M33.5072 26.5719C33.5741 26.5184 31.6022 23.0843 29.1256 18.9406C26.6491 14.7972 24.4694 11.2372 24.282 11.0297C24.0223 10.7423 22.8424 12.491 19.3107 18.3976C16.7636 22.6572 14.6797 26.2498 14.6797 26.3806C14.6797 26.5114 16.7912 27.8853 19.3721 29.4332C22.2397 31.1534 25.8559 31.1759 28.7253 29.4588C31.2889 27.9248 33.4406 26.6257 33.5072 26.5719ZM28.3889 31.8158C25.7043 33.4014 22.3522 33.4007 19.6769 31.7994C17.2895 30.3701 15.2594 29.2008 15.1654 29.2008C15.0264 29.2008 19.4266 35.5543 23.2317 40.8475C23.6374 41.4118 24.4782 41.4082 24.879 40.8405L27.022 37.8058C28.6508 35.4987 30.6568 32.6751 31.4799 31.5308C32.303 30.3865 32.9278 29.4016 32.8681 29.342C32.8085 29.2824 30.7931 30.3956 28.3889 31.8158Z" fill="#AFA0FE"/>
<path d="M33 4C33 1.79086 34.7909 0 37 0H48C50.2091 0 52 1.79086 52 4V9C52 11.2091 50.2091 13 48 13H37C34.7909 13 33 11.2091 33 9V4Z" fill="#AFA0FE"/>
<path d="M37.324 4.148V2.24H40.648V11H38.512V4.148H37.324ZM42.0517 6.5C42.0517 5.124 42.3157 4.04 42.8437 3.248C43.3797 2.456 44.2397 2.06 45.4237 2.06C46.6077 2.06 47.4637 2.456 47.9917 3.248C48.5277 4.04 48.7957 5.124 48.7957 6.5C48.7957 7.892 48.5277 8.984 47.9917 9.776C47.4637 10.568 46.6077 10.964 45.4237 10.964C44.2397 10.964 43.3797 10.568 42.8437 9.776C42.3157 8.984 42.0517 7.892 42.0517 6.5ZM46.7797 6.5C46.7797 5.692 46.6917 5.072 46.5157 4.64C46.3397 4.2 45.9757 3.98 45.4237 3.98C44.8717 3.98 44.5077 4.2 44.3317 4.64C44.1557 5.072 44.0677 5.692 44.0677 6.5C44.0677 7.044 44.0997 7.496 44.1637 7.856C44.2277 8.208 44.3557 8.496 44.5477 8.72C44.7477 8.936 45.0397 9.044 45.4237 9.044C45.8077 9.044 46.0957 8.936 46.2877 8.72C46.4877 8.496 46.6197 8.208 46.6837 7.856C46.7477 7.496 46.7797 7.044 46.7797 6.5Z" fill="white"/>
</svg>
