<svg width="111" height="111" viewBox="0 0 111 111" fill="none" xmlns="http://www.w3.org/2000/svg">
<g filter="url(#filter0_f_1358_2975)">
<path d="M80.7798 55.7041C80.7798 69.8181 69.338 81.2597 55.2239 81.2597C41.1097 81.2597 29.668 69.8181 29.668 55.7041C29.668 41.5901 41.1097 30.1484 55.2239 30.1484C69.338 30.1484 80.7798 41.5901 80.7798 55.7041Z" fill="#FFBF85"/>
</g>
<rect x="21.5185" y="20.5185" width="51.8581" height="51.2722" rx="25.6361" fill="#FFB673" stroke="#F2F6FF" stroke-width="2.96299"/>
<path fill-rule="evenodd" clip-rule="evenodd" d="M38.9891 39.694V42.9545H37.4506H35.9121V44.1259V45.2973H37.4506H38.9891V46.5273V47.7572H37.4506H35.9121V48.9286V50.1001H37.4506H38.9891V53.341V56.5819H43.9032C49.1412 56.5819 49.374 56.575 50.5602 56.3838C52.2192 56.1164 53.7869 55.5557 55.1392 54.7459C55.3814 54.6009 55.7227 54.3808 55.8976 54.2568C56.2938 53.9759 57.2161 53.1451 57.5644 52.7553C58.188 52.0572 58.8299 51.0641 59.1479 50.3051L59.2339 50.1001H60.6826H62.1313V48.9286V47.7572H60.9999H59.8685L59.902 47.3961C59.9429 46.9549 59.9416 45.7693 59.9 45.4965L59.8696 45.2973H61.0004H62.1313V44.1259V42.9545H60.7103H59.2894L59.1035 42.5295C58.7429 41.7051 58.1089 40.7691 57.4029 40.0187C55.5726 38.0735 52.928 36.8425 49.8234 36.4907C49.4137 36.4443 48.4055 36.4342 44.1571 36.4339L38.9891 36.4336V39.694ZM49.6717 38.595C51.571 38.8783 52.9922 39.4341 54.2872 40.4002C55.091 40.9999 55.87 41.8707 56.3183 42.6708C56.3929 42.8041 56.4541 42.9225 56.4541 42.9338C56.4541 42.9452 53.0997 42.9545 49 42.9545H41.546V40.7263V38.4982L45.3922 38.5143C48.7102 38.5281 49.2979 38.5392 49.6717 38.595ZM57.2635 45.5218C57.3078 45.8011 57.3066 47.3204 57.2618 47.5718L57.2288 47.7572H49.3874H41.546V46.5273V45.2973H49.3869H57.2279L57.2635 45.5218ZM56.2599 50.4417C55.831 51.1738 55.0778 52.0105 54.3692 52.5419C53.0771 53.5108 51.6156 54.0884 49.7584 54.3642C49.219 54.4443 49.0327 54.4485 45.3705 54.4627L41.546 54.4776V52.2888V50.1001H49.003H56.4599L56.2599 50.4417Z" fill="white" stroke="white" stroke-width="0.864205"/>
<defs>
<filter id="filter0_f_1358_2975" x="0.0380745" y="0.518543" width="110.371" height="110.371" filterUnits="userSpaceOnUse" color-interpolation-filters="sRGB">
<feFlood flood-opacity="0" result="BackgroundImageFix"/>
<feBlend mode="normal" in="SourceGraphic" in2="BackgroundImageFix" result="shape"/>
<feGaussianBlur stdDeviation="14.8149" result="effect1_foregroundBlur_1358_2975"/>
</filter>
</defs>
</svg>
