<svg width="111" height="111" viewBox="0 0 111 111" fill="none" xmlns="http://www.w3.org/2000/svg">
<g filter="url(#filter0_f_1358_2997)">
<path d="M80.7798 55.7041C80.7798 69.8181 69.338 81.2597 55.2239 81.2597C41.1097 81.2597 29.668 69.8181 29.668 55.7041C29.668 41.5901 41.1097 30.1484 55.2239 30.1484C69.338 30.1484 80.7798 41.5901 80.7798 55.7041Z" fill="#9CCAFF"/>
</g>
<rect x="21.5185" y="20.5185" width="51.8581" height="51.2722" rx="25.6361" fill="#77A7FF" stroke="#F2F6FF" stroke-width="2.96299"/>
<path d="M47.2647 52.6735C47.2647 52.4648 47.2526 52.2438 47.2647 52.0351C47.2767 51.8264 47.1925 51.7527 47.0002 51.7159C46.2909 51.5809 45.6297 51.3476 45.0526 50.8934C44.3433 50.3164 43.9345 49.5675 43.7662 48.6713C43.6701 48.1803 43.8624 47.9839 44.3433 47.9839C44.6318 47.9839 44.9204 47.9839 45.2089 47.9839C45.5936 47.9839 45.7379 48.1066 45.834 48.4995C46.0023 49.2238 46.387 49.7885 47.1084 49.9972C48.0701 50.2796 49.0319 50.3532 49.8975 49.6903C50.6308 49.1378 50.6909 48.3399 50.4265 47.5665C50.3423 47.3087 50.1019 47.1245 49.8614 46.9895C49.3204 46.6826 48.7073 46.5721 48.1062 46.4861C47.2767 46.3634 46.4472 46.2038 45.6777 45.8355C44.5958 45.3321 44.0788 44.4605 44.0187 43.282C43.9105 41.2932 45.2329 40.0778 46.9401 39.7218C47.1805 39.6727 47.2887 39.599 47.2647 39.3289C47.2406 38.9484 47.2526 38.5678 47.2647 38.1995C47.2647 37.7698 47.457 37.5734 47.8658 37.5611C48.1302 37.5611 48.3827 37.5488 48.6472 37.5611C49.068 37.5734 49.2603 37.7698 49.2603 38.2118C49.2603 38.6046 49.2723 39.0097 49.2603 39.4026C49.2483 39.6113 49.3324 39.7095 49.5248 39.7586C50.2101 39.9182 50.8232 40.2251 51.3281 40.7285C51.797 41.2072 52.0735 41.8088 52.2177 42.4717C52.2779 42.7295 52.0615 42.9996 51.7729 43.0119C51.4123 43.0364 51.0516 43.0242 50.6909 43.0119C50.4866 42.9996 50.3062 42.8891 50.2341 42.6681C49.8855 41.4773 49.0199 41.2318 47.9619 41.2441C47.5291 41.2563 47.0843 41.3177 46.6996 41.5633C46.2067 41.8824 46.0384 42.349 46.0504 42.9259C46.0624 43.4784 46.2909 43.8835 46.7838 44.129C47.469 44.4728 48.2264 44.5219 48.9718 44.6569C49.8734 44.8165 50.7751 45.0129 51.5445 45.5899C52.2538 46.1178 52.5303 46.8667 52.6145 47.7261C52.7828 49.6289 51.6647 51.0407 50.0057 51.5563C49.2603 51.7896 49.2603 51.765 49.2603 52.5507C49.2603 52.7962 49.2603 53.0418 49.2603 53.2873C49.2483 53.6433 49.0559 53.852 48.6953 53.852C48.4188 53.852 48.1302 53.852 47.8537 53.852C47.457 53.852 47.2767 53.6556 47.2647 53.2382C47.2647 53.0663 47.2647 52.8699 47.2647 52.6735Z" fill="white" stroke="white" stroke-width="0.715211"/>
<path d="M35.5938 45.8017C35.5938 43.3613 36.2885 40.9955 37.7553 38.8415C38.939 37.1108 40.4701 35.7785 42.3357 34.7948C43.0434 34.4213 43.7768 34.11 44.5487 33.8859C44.9476 33.7738 45.2049 33.9482 45.2178 34.3466C45.2307 34.6579 45.2178 34.9692 45.2178 35.2804C45.2178 35.6291 45.0505 35.8781 44.716 36.0026C43.6095 36.4135 42.5931 36.9738 41.6667 37.696C40.5344 38.5925 39.6467 39.6633 38.9776 40.8959C37.9483 42.776 37.5752 44.7807 37.8068 46.8849C37.9612 48.2172 38.3858 49.4997 39.0548 50.6825C39.7367 51.8779 40.6245 52.9113 41.731 53.7704C42.5802 54.4428 43.5323 54.9657 44.5487 55.3517C45.0891 55.5509 45.2049 55.7004 45.2049 56.2482C45.2049 56.5221 45.2178 56.8085 45.2049 57.0824C45.1921 57.4311 44.909 57.6303 44.5616 57.5307C43.0048 57.0575 41.5895 56.3105 40.3157 55.3144C39.0548 54.3183 38.0255 53.1354 37.2278 51.7658C36.4558 50.4211 35.9411 48.9892 35.7353 47.4701C35.6709 46.9721 35.6323 46.4491 35.5938 45.8017Z" fill="white" stroke="white" stroke-width="0.715211"/>
<path d="M60.7802 46.1831C60.7543 48.5457 59.863 51.1198 58.0415 53.3581C56.5947 55.1238 54.7861 56.4419 52.603 57.2502C52.3317 57.3497 52.0604 57.4367 51.7891 57.5238C51.4662 57.6357 51.1691 57.4492 51.1561 57.1134C51.1432 56.7528 51.1561 56.3922 51.1561 56.0316C51.1561 55.758 51.2982 55.5591 51.5695 55.4596C52.3317 55.1487 53.0809 54.8254 53.7785 54.3777C55.5225 53.2586 56.853 51.7788 57.7056 49.926C58.4936 48.21 58.8166 46.4194 58.5841 44.5665C58.3128 42.3904 57.4344 40.4754 55.91 38.8216C55.0057 37.8516 53.9465 37.0807 52.7709 36.4714C52.4092 36.2848 52.0087 36.1481 51.6212 35.9864C51.3241 35.862 51.1561 35.6631 51.1561 35.3398C51.1561 35.004 51.1432 34.6559 51.1561 34.3201C51.1691 33.9595 51.4403 33.773 51.7891 33.8849C53.1326 34.2952 54.3728 34.8921 55.5096 35.7004C57.0339 36.7574 58.2353 38.0879 59.1525 39.6672C59.7209 40.6495 60.1472 41.6692 60.4185 42.7759C60.6381 43.7458 60.7802 44.7158 60.7802 46.1831Z" fill="white" stroke="white" stroke-width="0.715211"/>
<defs>
<filter id="filter0_f_1358_2997" x="0.0380745" y="0.518543" width="110.371" height="110.371" filterUnits="userSpaceOnUse" color-interpolation-filters="sRGB">
<feFlood flood-opacity="0" result="BackgroundImageFix"/>
<feBlend mode="normal" in="SourceGraphic" in2="BackgroundImageFix" result="shape"/>
<feGaussianBlur stdDeviation="14.8149" result="effect1_foregroundBlur_1358_2997"/>
</filter>
</defs>
</svg>
