<svg width="149" height="112" viewBox="0 0 149 112" fill="none" xmlns="http://www.w3.org/2000/svg">
<g filter="url(#filter0_f_1345_2445)">
<path d="M119.297 56.4443C119.297 70.5583 107.856 82 93.7415 82C79.6273 82 68.1855 70.5583 68.1855 56.4443C68.1855 42.3303 79.6273 30.8887 93.7415 30.8887C107.856 30.8887 119.297 42.3303 119.297 56.4443Z" fill="#8FA8FF"/>
</g>
<g filter="url(#filter1_f_1345_2445)">
<path d="M80.7798 55.7041C80.7798 69.8181 69.338 81.2597 55.2239 81.2597C41.1097 81.2597 29.668 69.8181 29.668 55.7041C29.668 41.5901 41.1097 30.1484 55.2239 30.1484C69.338 30.1484 80.7798 41.5901 80.7798 55.7041Z" fill="#8EE0B4"/>
</g>
<rect x="65.2177" y="20.5185" width="51.8581" height="51.2722" rx="25.6361" fill="#7C79FF" stroke="#F2F6FF" stroke-width="2.96299"/>
<path fill-rule="evenodd" clip-rule="evenodd" d="M101.309 45.8065C101.375 45.7541 99.4181 42.3867 96.9602 38.3235C94.5023 34.2605 92.339 30.7697 92.1531 30.5663C91.8953 30.2844 90.7243 31.9991 87.2192 37.7911C84.6912 41.9679 82.623 45.4907 82.623 45.6189C82.623 45.7472 84.7187 47.0944 87.2801 48.6123L91.9372 51.3724L96.5629 48.6373C99.1072 47.1332 101.243 45.8593 101.309 45.8065ZM91.8907 53.4802L87.5826 50.9325C85.2132 49.5309 83.1984 48.3844 83.1052 48.3844C82.9672 48.3844 87.3342 54.6145 91.1107 59.8049L91.933 60.935L94.8724 56.8222C96.489 54.5599 98.4799 51.7912 99.2968 50.6691C100.114 49.547 100.734 48.5813 100.675 48.5228C100.615 48.4644 98.6151 49.556 96.2291 50.9486L91.8907 53.4802Z" fill="white"/>
<rect x="21.5185" y="20.5185" width="51.8581" height="51.2722" rx="25.6361" fill="#93E4B8" stroke="#F2F6FF" stroke-width="2.96299"/>
<path fill-rule="evenodd" clip-rule="evenodd" d="M56.8419 40.5962V38.3352V36.0742H47.9917H39.1414V38.333V40.5917L42.3392 40.6263L45.5369 40.6608L45.5734 42.0412L45.61 43.4215L45.0566 43.4904C44.7522 43.5284 43.8217 43.6235 42.9888 43.7016C42.1558 43.7799 40.8687 43.9807 40.1287 44.148C38.057 44.6161 37.0742 45.1985 37.0742 45.958C37.0742 46.7174 38.057 47.2998 40.1285 47.7679C40.8687 47.9351 42.1557 48.1373 42.9888 48.2172C43.8217 48.2969 44.7503 48.3917 45.0524 48.4278L45.6015 48.4933V52.6842V56.8753H48.0563H50.5111V52.6867V48.4979L51.3832 48.4209C56.9025 47.9338 59.2968 47.192 59.2968 45.969C59.2968 44.7317 56.8975 43.9816 51.3832 43.495L50.5111 43.418V42.0071V40.5962H53.6765H56.8419ZM39.396 45.0625C40.509 44.7109 42.0565 44.3994 43.5343 44.2295C44.0672 44.1683 44.7503 44.1106 45.0524 44.1014L45.6015 44.0846V45.5058V46.927H48.0563H50.5111V45.4881V44.0492L51.7708 44.1404C54.7848 44.3587 57.6342 45.042 58.4257 45.7361C58.6368 45.9213 58.6378 45.9519 58.4404 46.17C57.9506 46.7113 55.5007 47.3035 52.6429 47.5713C48.8801 47.924 42.9489 47.6701 40.2731 47.042C37.3802 46.3628 37.1222 45.7808 39.396 45.0625Z" fill="white"/>
<defs>
<filter id="filter0_f_1345_2445" x="38.5557" y="1.25878" width="110.371" height="110.371" filterUnits="userSpaceOnUse" color-interpolation-filters="sRGB">
<feFlood flood-opacity="0" result="BackgroundImageFix"/>
<feBlend mode="normal" in="SourceGraphic" in2="BackgroundImageFix" result="shape"/>
<feGaussianBlur stdDeviation="14.8149" result="effect1_foregroundBlur_1345_2445"/>
</filter>
<filter id="filter1_f_1345_2445" x="0.0380745" y="0.518543" width="110.371" height="110.371" filterUnits="userSpaceOnUse" color-interpolation-filters="sRGB">
<feFlood flood-opacity="0" result="BackgroundImageFix"/>
<feBlend mode="normal" in="SourceGraphic" in2="BackgroundImageFix" result="shape"/>
<feGaussianBlur stdDeviation="14.8149" result="effect1_foregroundBlur_1345_2445"/>
</filter>
</defs>
</svg>
