<svg width="111" height="111" viewBox="0 0 111 111" fill="none" xmlns="http://www.w3.org/2000/svg">
<g filter="url(#filter0_f_1358_3045)">
<path d="M80.7798 55.7041C80.7798 69.8181 69.338 81.2597 55.2239 81.2597C41.1097 81.2597 29.668 69.8181 29.668 55.7041C29.668 41.5901 41.1097 30.1484 55.2239 30.1484C69.338 30.1484 80.7798 41.5901 80.7798 55.7041Z" fill="#8EE0B4"/>
</g>
<rect x="21.5185" y="20.5185" width="51.8581" height="51.2722" rx="25.6361" fill="#93E4B8" stroke="#F2F6FF" stroke-width="2.96299"/>
<path fill-rule="evenodd" clip-rule="evenodd" d="M56.8419 40.5962V38.3352V36.0742H47.9917H39.1414V38.333V40.5917L42.3392 40.6263L45.5369 40.6608L45.5734 42.0412L45.61 43.4215L45.0566 43.4904C44.7522 43.5284 43.8217 43.6235 42.9888 43.7016C42.1558 43.7799 40.8687 43.9807 40.1287 44.148C38.057 44.6161 37.0742 45.1985 37.0742 45.958C37.0742 46.7174 38.057 47.2998 40.1285 47.7679C40.8687 47.9351 42.1557 48.1373 42.9888 48.2172C43.8217 48.2969 44.7503 48.3917 45.0524 48.4278L45.6015 48.4933V52.6842V56.8753H48.0563H50.5111V52.6867V48.4979L51.3832 48.4209C56.9025 47.9338 59.2968 47.192 59.2968 45.969C59.2968 44.7317 56.8975 43.9816 51.3832 43.495L50.5111 43.418V42.0071V40.5962H53.6765H56.8419ZM39.396 45.0625C40.509 44.7109 42.0565 44.3994 43.5343 44.2295C44.0672 44.1683 44.7503 44.1106 45.0524 44.1014L45.6015 44.0846V45.5058V46.927H48.0563H50.5111V45.4881V44.0492L51.7708 44.1404C54.7848 44.3587 57.6342 45.042 58.4257 45.7361C58.6368 45.9213 58.6378 45.9519 58.4404 46.17C57.9506 46.7113 55.5007 47.3035 52.6429 47.5713C48.8801 47.924 42.9489 47.6701 40.2731 47.042C37.3802 46.3628 37.1222 45.7808 39.396 45.0625Z" fill="white"/>
<defs>
<filter id="filter0_f_1358_3045" x="0.0380745" y="0.518543" width="110.371" height="110.371" filterUnits="userSpaceOnUse" color-interpolation-filters="sRGB">
<feFlood flood-opacity="0" result="BackgroundImageFix"/>
<feBlend mode="normal" in="SourceGraphic" in2="BackgroundImageFix" result="shape"/>
<feGaussianBlur stdDeviation="14.8149" result="effect1_foregroundBlur_1358_3045"/>
</filter>
</defs>
</svg>
