<svg width="112" height="111" viewBox="0 0 112 111" fill="none" xmlns="http://www.w3.org/2000/svg">
<g filter="url(#filter0_f_1358_3021)">
<path d="M81.5982 55.4443C81.5982 69.5583 70.1564 81 56.0423 81C41.9281 81 30.4863 69.5583 30.4863 55.4443C30.4863 41.3303 41.9281 29.8887 56.0423 29.8887C70.1564 29.8887 81.5982 41.3303 81.5982 55.4443Z" fill="#8FA8FF"/>
</g>
<rect x="27.5185" y="19.5185" width="51.8581" height="51.2722" rx="25.6361" fill="#7C79FF" stroke="#F2F6FF" stroke-width="2.96299"/>
<path fill-rule="evenodd" clip-rule="evenodd" d="M63.6096 44.8065C63.676 44.754 61.7189 41.3867 59.261 37.3235C56.8031 33.2605 54.6398 29.7697 54.4539 29.5663C54.1961 29.2844 53.0251 30.9991 49.5199 36.7911C46.992 40.9679 44.9238 44.4907 44.9238 44.6189C44.9238 44.7472 47.0195 46.0944 49.5809 47.6123L54.238 50.3724L58.8637 47.6373C61.408 46.1332 63.5435 44.8593 63.6096 44.8065ZM54.1915 52.4802L49.8834 49.9325C47.514 48.5309 45.4992 47.3844 45.4059 47.3844C45.268 47.3844 49.635 53.6145 53.4115 58.8049L54.2338 59.935L57.1732 55.8222C58.7898 53.5599 60.7807 50.7912 61.5975 49.6691C62.4144 48.547 63.0345 47.5813 62.9753 47.5228C62.9161 47.4644 60.9159 48.556 58.5298 49.9486L54.1915 52.4802Z" fill="white"/>
<defs>
<filter id="filter0_f_1358_3021" x="0.856434" y="0.258778" width="110.371" height="110.371" filterUnits="userSpaceOnUse" color-interpolation-filters="sRGB">
<feFlood flood-opacity="0" result="BackgroundImageFix"/>
<feBlend mode="normal" in="SourceGraphic" in2="BackgroundImageFix" result="shape"/>
<feGaussianBlur stdDeviation="14.8149" result="effect1_foregroundBlur_1358_3021"/>
</filter>
</defs>
</svg>
